<svg width="463" height="334" viewBox="0 0 463 334" fill="none" xmlns="http://www.w3.org/2000/svg">
<g filter="url(#filter0_df)">
<path fill-rule="evenodd" clip-rule="evenodd" d="M230.078 283.13C210.626 278.511 189.196 284.923 170.214 279.049C151.143 273.149 133.828 262.707 120.909 249.353C108.362 236.383 110.976 215.625 97.2142 203.587C76.5437 185.505 34.1465 186.82 22.7621 163.496C13.0136 143.523 30.8861 118.781 48.0534 102.865C65.6872 86.5169 99.3899 90.2955 118.246 74.974C133.353 62.6978 124.802 35.725 142.415 26.1894C159.951 16.6957 183.388 29.5378 204.115 28.4849C222.424 27.5547 239.664 18.1491 257.828 20.3259C276.084 22.5138 290.779 33.5513 307.125 40.8301C324.366 48.5071 344.173 52.8635 357.694 64.7955C371.482 76.9624 373.298 95.7485 384.909 109.472C401.672 129.286 435.289 139.951 441.471 163.819C447.074 185.452 437.06 214.038 415.021 225.731C387.266 240.458 342.187 210.688 317.919 229.374C293.841 247.913 330.748 294.782 304.396 310.908C282.227 324.475 256.355 289.369 230.078 283.13Z" fill="#9D165F" fill-opacity="0.5"/>
<path fill-rule="evenodd" clip-rule="evenodd" d="M230.078 283.13C210.626 278.511 189.196 284.923 170.214 279.049C151.143 273.149 133.828 262.707 120.909 249.353C108.362 236.383 110.976 215.625 97.2142 203.587C76.5437 185.505 34.1465 186.82 22.7621 163.496C13.0136 143.523 30.8861 118.781 48.0534 102.865C65.6872 86.5169 99.3899 90.2955 118.246 74.974C133.353 62.6978 124.802 35.725 142.415 26.1894C159.951 16.6957 183.388 29.5378 204.115 28.4849C222.424 27.5547 239.664 18.1491 257.828 20.3259C276.084 22.5138 290.779 33.5513 307.125 40.8301C324.366 48.5071 344.173 52.8635 357.694 64.7955C371.482 76.9624 373.298 95.7485 384.909 109.472C401.672 129.286 435.289 139.951 441.471 163.819C447.074 185.452 437.06 214.038 415.021 225.731C387.266 240.458 342.187 210.688 317.919 229.374C293.841 247.913 330.748 294.782 304.396 310.908C282.227 324.475 256.355 289.369 230.078 283.13Z" stroke="#FF008A" stroke-opacity="0.66"/>
</g>
<defs>
<filter id="filter0_df" x="0.499664" y="0.5" width="462" height="333" filterUnits="userSpaceOnUse" color-interpolation-filters="sRGB">
<feFlood flood-opacity="0" result="BackgroundImageFix"/>
<feColorMatrix in="SourceAlpha" type="matrix" values="0 0 0 0 0 0 0 0 0 0 0 0 0 0 0 0 0 0 127 0" result="hardAlpha"/>
<feOffset/>
<feGaussianBlur stdDeviation="7.5"/>
<feColorMatrix type="matrix" values="0 0 0 0 1 0 0 0 0 0 0 0 0 0 0.541176 0 0 0 0.5 0"/>
<feBlend mode="normal" in2="BackgroundImageFix" result="effect1_dropShadow"/>
<feBlend mode="normal" in="SourceGraphic" in2="effect1_dropShadow" result="shape"/>
<feGaussianBlur stdDeviation="9.5" result="effect2_foregroundBlur"/>
</filter>
</defs>
</svg>
