<?xml version="1.0" standalone="no"?>
<!DOCTYPE svg PUBLIC "-//W3C//DTD SVG 1.1//EN" "http://www.w3.org/Graphics/SVG/1.1/DTD/svg11.dtd" >
<svg xmlns="http://www.w3.org/2000/svg" width="100%" height="100%">
<metadata>
Created by FontXChange 20110222 at Wed Mar 23 23:13:44 2016
 By Aaron Smulktis
Typeface (c) &#60;your company&#62;. 2003. All Rights Reserved
</metadata>
<defs>
<font id="JamesFajardo" horiz-adv-x="1139" >
  <font-face 
    font-family="JamesFajardo"
    font-weight="400"
    font-stretch="normal"
    units-per-em="2048"
    panose-1="2 0 0 0 0 0 0 0 0 0"
    ascent="1638"
    descent="-410"
    x-height="879"
    cap-height="1531"
    bbox="-232.024 -3.725 1396.67 1830.91"
    underline-thickness="150"
    underline-position="-142"
    unicode-range="U+0020-F005"
  />
<missing-glyph horiz-adv-x="1536" 
d="M256 0v1280h1024v-1280h-1024zM288 32h960v1216h-960v-1216z" />
    <glyph glyph-name=".notdef" horiz-adv-x="1536" 
d="M256 0v1280h1024v-1280h-1024zM288 32h960v1216h-960v-1216z" />
    <glyph glyph-name=".null" horiz-adv-x="0" 
 />
    <glyph glyph-name="nonmarkingreturn" horiz-adv-x="569" 
 />
    <glyph glyph-name="space" unicode=" " horiz-adv-x="377" 
 />
    <glyph glyph-name="space" unicode="&#xa0;" horiz-adv-x="377" 
 />
    <glyph glyph-name="exclam" unicode="!" horiz-adv-x="442" 
d="M417 1488q34 28 58 20t34 -30t-4 -66t-26 -62t-50 -84t-48 -88t-31 -103.5t-45 -119.5t-22 -52t-22 -38t-40 14t-18 60t49 187.5t91 249.5t74 112zM138 537q13 7 37 -5t36.5 -15.5t16 -18t-4.5 -42.5t-14.5 -40.5t-22 -14t-41.5 10.5t-42 32t-6 46t19.5 33.5t21.5 13.5z
" />
    <glyph glyph-name="quotedbl" unicode="&#x22;" horiz-adv-x="450" 
d="M271 1547q15 9 43 5t32 -16t-4 -42t-46 -84t-54 -84t-36 -54t-28 -58t-15 -48t-22 -24t-31.5 -9t-26 16t-17.5 23t0 32t90 168t91.5 155t23.5 20zM495 1549q16 11 34 7t24 -24t-8 -56t-100 -150t-100 -148t-38 -60t-43 -20.5t-20 28t9 58.5t28 68t23 49t18 30t35 41
t40 60t21 49t20 26t29 20.5t28 21.5z" />
    <glyph glyph-name="numbersign" unicode="#" horiz-adv-x="773" 
d="M638 1189q12 10 28.5 5.5t25.5 -13.5t10 -21t-16.5 -55t-37 -95t-16.5 -63.5t46 -22t73 -11.5t27 -24t-61 -26t-80.5 1.5t-37 -22t-29.5 -74t43 -53.5t95 -3t41.5 -4.5t-18 -22.5t-49 -25.5t-81.5 -13.5t-76.5 -6.5t-40.5 -57.5t-19 -92.5t-13.5 -64t-44 -25.5h-35.5
t3 50t20 98t0.5 58t-27 12t-70.5 4.5t-67 -12t-31 -59t-22 -71.5t-5.5 -41t-19.5 -17.5t-29.5 -2t-17.5 13.5t-6.5 26.5t6 57.5t15 55t14 40t-40 31.5t-38.5 35t57.5 34t61 8t19.5 57.5t-44 39.5t-69 3.5t-17 42t85 37t95 16t24 40t28.5 58.5t25 49t20 35t24 15t26 0t19 -18
t-16.5 -78t19.5 -65.5t82.5 4t65.5 80.5t35 104.5t19 33.5t22.5 14.5zM402 869q-71 5 -82.5 -14t-28 -71.5t-13 -61t15 -9.5t73 -7.5t73 6.5t16.5 32.5t16.5 35.5t16 36t4.5 31t-9.5 14.5t-81.5 7.5z" />
    <glyph glyph-name="dollar" unicode="$" horiz-adv-x="965" 
d="M923 1582q54 45 90.5 30.5t45.5 -32t8 -39.5t-15.5 -57t-34 -47.5t-33 13t-28.5 12.5t-38 -40t-34 -51.5t33.5 -40.5t60.5 -22t29 -20.5t28 -34t7.5 -28t-41.5 -16t-82.5 2.5t-72.5 7t-40 0.5t-41 -20t-64.5 -81t-54 -92t-37.5 -63.5t-27.5 -59.5t-2.5 -36.5t25.5 -31
t36 -39t17.5 -35t12 -45t-11 -66.5t-47 -70t-127 -81.5t-116.5 -83t-39.5 -67t-42 -144t-65 -164t-21 54t21.5 140t5 85.5t-10 63t-56.5 3.5t-46 2t-20 12.5t-15 27t-4 36.5t10.5 32.5t85.5 22t96.5 15t39.5 57.5t44 119.5t37.5 99.5t4.5 34t-12.5 20t-23.5 27t-34 42.5
t-33 69t-11.5 83.5t48 100t147.5 102.5t145.5 56t56 6t33.5 11.5t42 42t69 81t102 96zM596 1213q-33 -12 -59 -17t-61 -26.5t-46.5 -36t-22.5 -39t2.5 -60t32.5 -53t31 -13t69 113t72 126t-18 5.5zM520 753q-22 5 -29 -17.5t-22.5 -35t-36 -62t23 -21t61 41t28.5 29t4 38.5
t-29 27z" />
    <glyph glyph-name="percent" unicode="%" horiz-adv-x="1115" 
d="M334 1594q8 6 34 4t44 -10t28 -24t22 -23.5t0.5 -43.5t-45 -25.5t11.5 -14.5t61 -35t30 -14t52 -14t100.5 -6t98 14t77.5 20t62 18t44 6t38 -14t8 -34t-48 -58t-90 -66t-140 -120t-122 -112t-42 -38t-28 -26t-80 -76t-84 -98t-74 -82t-62 -68t-22 -32t-24 -30t-16 -34
t10 -28t40 -8t46 6t64 22t151.5 58t-12 -18t-159.5 -80t-64 -28t-48 -10t-46 0t-40 14t-26 34t2 58t42 82t68 88t46 58t148 164t170 170t54 52t54 50t68 60t18 46t-102.5 21.5t-143 4.5t-65.5 -25.5t-1 -28.5t2 -48t-14 -60t-65 -50t-104 -16t-81 32t-40 38t-22 48t-8 38
t6 28t18 60t48 84t60 70t56 34t36 16zM283 1408q-17 4 -39 -20t-28 -40t-6 -34t1 -34.5t12 -32t45 -23.5t48.5 -2.5t22 22t15.5 30.5t-10 64t-31 58t-30 12zM895 813q26 8 46 8t28 -8t2 -42t-36 -53.5t-12 -37.5t40.5 -53.5t17 -106t-48.5 -102.5t-75 -36t-62 0t-52 18
t-38 32t-28 44t-14 48t8 74t-27 62.5t16.5 42.5t89 39t77.5 35t68 36zM843 618q-28 2 -48 -10t-26 -42t6 -52t38 -28t48 6t31.5 35.5t-5.5 56.5t-44 34z" />
    <glyph glyph-name="ampersand" unicode="&#x26;" horiz-adv-x="1130" 
d="M480 1167q21 9 47 7t49 -10.5t38.5 -22.5t26 -35t18.5 -67t-1.5 -98.5t-23.5 -78t-16 -42t26 -18.5t80.5 1.5t79 -1.5t47.5 -14t44.5 -19.5t63 -78t4 -13t-89 57t-138 -11.5t-89.5 -17.5t20.5 -15t66.5 -21t62 -15t3 -28.5t-35 -28t-50.5 -8.5t-96 17.5t-92.5 12.5
t-49.5 -19t-47.5 -35.5t-68.5 -54.5t-93 -40t-96 -10.5t-62.5 19t-19 54.5t28 68.5t66 58t61 32t35 21t-2 31.5t-19.5 40t-3.5 50.5t9 53t19 59t51.5 90t83 88.5t64.5 41.5zM519 1076q-25 4 -58.5 -25.5t-51 -50.5t-28 -45.5t-23 -72t0 -77t35.5 -40t64 -9t64.5 45.5t41 128
t10.5 107t-18 29t-37 10zM356 628q-17 0 -45 -8.5t-71.5 -35t-47 -35t17.5 -10.5t68 21t71.5 45.5t6.5 22.5z" />
    <glyph glyph-name="quotesingle" unicode="'" horiz-adv-x="189" 
d="M355 1445q36 14 58 8t33.5 -22.5t16 -34t-9.5 -21.5t-70 -48t-126 -120t-90 -120t-34 -42t-24 14t-12 32t2 42t112 160t144 152z" />
    <glyph glyph-name="parenleft" unicode="(" horiz-adv-x="564" 
d="M545 1665q27 12 63 8t66.5 -13.5t49 -49.5t19 -55t-26 -30t-53 -4t-55 9.5t-84 -34t-125.5 -118t-118.5 -177t-80 -226t-18 -227.5t39.5 -144t79 -106t139 -76.5t82.5 -65t-13 -47.5t-68.5 0t-123.5 47.5t-112.5 91.5t-89 146.5t-47.5 152t-0.5 117.5t51.5 216t144 291.5
t177 211t104.5 82.5z" />
    <glyph glyph-name="parenright" unicode=")" horiz-adv-x="487" 
d="M-2 1645q39 7 94.5 -5.5t114 -64.5t98.5 -143t58 -139.5t43 -153.5t-5.5 -294t-81 -281t-94 -128t-83 -62t-86.5 -49.5t-61.5 -25.5t-29 3.5t-25.5 29.5t2.5 46t55.5 22t72 22.5t44 37t32 31t63 112t59.5 149.5t24 112t2 177.5t-33 193.5t-38 97.5t-49.5 90.5t-83 92
t-82.5 20t-58 10.5t-21.5 28.5t15 39t54 32z" />
    <glyph glyph-name="asterisk" unicode="*" horiz-adv-x="667" 
d="M415 1822q14 14 36 6t24 -22t-10 -96t4 -92t36 0t93 33t85 18t20 -29.5t-32 -49.5t-117.5 -51.5t-97 -30.5t-11.5 -20t92 -80t68 -88t-30 -32t-25.5 -11t-73 51t-66.5 33t-19 -63t-25 -62.5t-23 -28t-32 -7.5t-20 34.5t6 62.5t19 75.5t-1 61.5t-118 -16t-120 -22t-20 14
t0 22t18 30t24 34t50 64t60 54t42 4t40 -16t38 -14t36 90t26 112t24 32zM242 1538q-21 2 -53 -34.5t36 -15t53.5 34.5t-36.5 15z" />
    <glyph glyph-name="plus" unicode="+" horiz-adv-x="837" 
d="M429 1318q21 12 40.5 10t26 -10t16.5 -32.5t10 -54t-10 -83t-10 -104t-5 -60.5t13 -15t104.5 5t139 5t70.5 -1t50 14t-8.5 -8t-50 -30.5t-55.5 -36t-100.5 -35.5t-94.5 -18.5t-55 -10t-31 -16.5t-19 -42.5t-1.5 -56t-3.5 -51.5t-8.5 -104t-21.5 -115.5t-47 -52t-57 -1
t-25 49t13 73t18.5 117.5t20 124.5t5 49t-36 3.5t-64.5 -3.5t-75 -13.5t-59.5 -21t-48.5 -27.5t2 -37t1 -5t-39.5 38.5t-6.5 52.5t22.5 44t27 24.5t21.5 13t38.5 13t133.5 34.5t109 46t-3 47t0 51.5t0 55.5t15 96.5t39 78z" />
    <glyph glyph-name="comma" unicode="," horiz-adv-x="301" 
d="M53 587q11 12 33 12t34 -8t28 -34t31.5 -73t6.5 -90t-59 -93t-82 -60t-38 8t6 26t38 60t27 70.5t-4 39t-15.5 35.5t-20 26t-10 28t7 29.5t17.5 23.5z" />
    <glyph glyph-name="hyphen" unicode="-" horiz-adv-x="629" 
d="M354 874q13 5 82.5 -11t117 -16t65 -9.5t27 -7.5t5.5 -3.5t-30.5 -17t-34.5 -8t-19.5 -4t-19 -3.5t-19 -4t-59.5 -8t-96 -9t-71 -16.5t-31 -5.5t-60.5 -8.5t-94.5 -26t-57.5 2t-39.5 33.5t4 38t66.5 45t104 29.5t94.5 5t41.5 -0.5t24.5 5z" />
    <glyph glyph-name="hyphen" unicode="&#xad;" horiz-adv-x="629" 
d="M354 874q13 5 82.5 -11t117 -16t65 -9.5t27 -7.5t5.5 -3.5t-30.5 -17t-34.5 -8t-19.5 -4t-19 -3.5t-19 -4t-59.5 -8t-96 -9t-71 -16.5t-31 -5.5t-60.5 -8.5t-94.5 -26t-57.5 2t-39.5 33.5t4 38t66.5 45t104 29.5t94.5 5t41.5 -0.5t24.5 5z" />
    <glyph glyph-name="period" unicode="." horiz-adv-x="284" 
d="M77 566q20 20 68 18t60 -14t16 -34t-20 -48t-54 -32t-60 20t-30 48t20 42z" />
    <glyph glyph-name="slash" unicode="/" horiz-adv-x="569" 
 />
    <glyph glyph-name="zero" unicode="0" horiz-adv-x="557" 
d="M257 1112q38 -11 87 -46.5t83 -83.5t52 -110t19 -101t-6 -72t-21 -61t-53.5 -67t-90.5 -66.5t-120.5 -35t-95.5 8.5t-52.5 37t-36 66t4.5 93t76 186t64 154t-2.5 27t-30.5 21t-87 -47t-7 -2.5t81.5 82t49.5 27.5t35 1t51 -11zM290 971q-17 7 -85.5 -143.5t-76 -186
t-5.5 -41.5t13 -18.5t30 -16t41 -5t91.5 39.5t87 83t19.5 63t-7.5 64.5t-29 79t-40.5 55.5t-38 26z" />
    <glyph glyph-name="one" unicode="1" horiz-adv-x="458" 
d="M367 1276q5 15 24 16.5t35.5 -12t22.5 -31t-146 -384.5t-181.5 -421.5t-46.5 -62.5t-16 -2t-4.5 19.5t-3.5 50t22 105.5t29.5 111t33.5 94.5t125.5 277t105.5 239.5z" />
    <glyph glyph-name="two" unicode="2" horiz-adv-x="587" 
d="M307 1135q31 3 67.5 -6.5t66 -32t49.5 -61t23 -72t-6.5 -76.5t-37 -88t-87.5 -94t-78.5 -62t-50 -41t-11.5 -35t165.5 -12t163 2t2 -11.5t-28.5 -35t-58 -31.5t-148 -15h-177.5t-126 1.5t-58 21.5t-2 45t40 38t89 53t119 95.5t119 107.5t58 77.5t1.5 44.5t-16.5 39.5
t-52.5 26.5t-58 -3t-28 -3.5t-19.5 14t-16 29t1.5 37.5t36 30.5t59 16.5z" />
    <glyph glyph-name="three" unicode="3" horiz-adv-x="607" 
d="M184 1120q22 8 80 2t80 -16t46 -16t76 -48t62 -62t8 -32t2 -22t-4 -34t-22 -42t-30 -32t-22 -30t10 -32t24 -38t2 -48t-48 -78t-116 -102t-120 -68t-58 -20t-14 12t-1.5 25t8 22t21.5 27t72 52t104 82t54 60t4 20t-28 10t-126 -30t-118 -28t-24 20t2 40t30 38t44 18
t58 18t95.5 53.5t80 62t6.5 38.5t-52 40t-92 32t-78 6t-54 -28t-43.5 -18t-16 16t7.5 32t20 42t30 34t40 22z" />
    <glyph glyph-name="four" unicode="4" horiz-adv-x="646" 
d="M580 1274q46 38 76 34t36 -28t-12 -26t-72 -114t-62 -138t-20 -46t-14 -32t27.5 -2t83.5 102t7 4t-79.5 -140.5t-44.5 -56t-30 -17.5t-32 -34t-36 -64t-41 -121t-19 -125t-11 -55t-29 -11t-24 0t-16 30t-10 74t16 134t-5 89t-67 13t-71 23t-43 29t-26 40t-6 54t26 102
t60 102t62 36t40 -12t6 -42t-34 -64t-34 -64t-12 -50t18 -38t52 -16t56 -2t46 16t106 196t132 220z" />
    <glyph glyph-name="five" unicode="5" horiz-adv-x="682" 
d="M412 1193q22 11 49 12.5t34 -6.5t4 -34.5t-22 -42t95.5 -17.5t168.5 -16t80 -21t140 -13.5t-15.5 -4t-244.5 -15t-148.5 -18.5t-63.5 -6.5t-53.5 -14.5t-43 -22t-42.5 -82t-14 -92.5t22.5 -99t8.5 -101.5t-29.5 -65.5t-60 -71.5t-56 -47t-49.5 -21.5t-79.5 -9t-81 8.5
t-43 28t-7 21.5t16 -1t60 4.5t55.5 8.5t83.5 52t88 94t-3 72t-28 92.5t-8.5 105.5t11.5 59t10 37.5t19 49.5t-10 32.5t-29 18.5t4 24.5t32 23t58 5.5t52.5 28t39 44.5z" />
    <glyph glyph-name="six" unicode="6" horiz-adv-x="580" 
d="M435 1164q34 12 82 -6t36 -38t-42 -30t-58 -28t-98 -92t-100 -138t-40 -98t-10 -48t26 -6t62 -2t64 -30t46 -50t14 -70t-62 -78t-96 -44t-72 10t-47.5 24.5t-22 24t-20.5 51.5t-16 66t0 36t18 82t28 112t48 94t76 110t66 74t54 42t64 32zM199 585q-13 -1 -6 -22.5t12 -31
t16 -16t35.5 -10t38 6.5t16.5 23.5t-9 22t-26.5 16t-38.5 10t-38 1.5z" />
    <glyph glyph-name="seven" unicode="7" horiz-adv-x="641" 
d="M361 1184q36 5 74 8.5t84 -8t46 -46t-4 -40.5t-12 -44t-142 -248t-144 -246t-12.5 -52.5t-16 -30t-33 -11.5t-26 22t-8.5 46t16 76t52 112t54 92t80 116t72 118t-30 36t-152 -16t-116 -18t-24.5 9.5t-20 30t5.5 39.5t26 22t107 17t124 16z" />
    <glyph glyph-name="eight" unicode="8" horiz-adv-x="807" 
d="M385 1170q48 18 76 10t46 -22t26 -40t-12 -40t-48 -8t-50 -6t-54.5 -51t-41.5 -62t-9.5 -43.5t5.5 -34t22 -9.5t38 16t108 58t122 78t53.5 55t36 62.5t-51 127t10 -8.5t87.5 -122t10 -56t-10 -52t-64 -72t-92 -76t-84 -48t-108 -60t-70 -60t4 -74t4.5 -100t-22 -72
t-38.5 -36t-50 -18t-73.5 2t-72 28t-36.5 44t-1.5 84.5t50 108t61.5 63.5t35 32.5t14 48t-6.5 54.5t1 73t37.5 97t65 79t82 50zM209 626q-8 6 -26 -6t-30 -34t-12 -42t20 -31t40 -7.5t28.5 29t4.5 45t-10.5 30t-14.5 16.5z" />
    <glyph glyph-name="nine" unicode="9" horiz-adv-x="624" 
d="M460 1218q48 6 70 0t36 -22t8 -34t-14 -64t-84 -248t-108 -280t-48 -116t-36 -46t-40 -4t-26 26t20 80t54 112t52 134t42 116t18 50t-17 -13t-44 -52t-87 -77t-80 -60t-44 -4t-38 18t-18 38t-10 36t16 56t32 62t58 80t90 104t74 64t54 30t70 14zM415 1093q-23 -1 -41 -15
t-46 -44t-42 -44t-59 -66t-45.5 -70.5t27 -4t55 44t50 56t36.5 36.5t51.5 59t13.5 48z" />
    <glyph glyph-name="colon" unicode=":" horiz-adv-x="368" 
d="M200 1016q15 10 32 7.5t30 -16t11 -25.5t6 -36t-3.5 -34.5t-16 -28t-16.5 -51.5t-27 -27.5t-22 24t-17 49.5t-10 68t9.5 48.5t23.5 21.5zM104 585q11 9 41 3t44 -8.5t20 -16t12 -29.5t-22 -36t-50 -24t-30 -2t-28 18t-16 42t11.5 35.5t17.5 17.5z" />
    <glyph glyph-name="semicolon" unicode=";" horiz-adv-x="358" 
d="M227 888q15 10 49.5 4.5t47.5 -38.5t14 -49.5t-7 -34.5t-20 -27t-18 -25.5t-37 -3t-40.5 26.5t-5 31.5t-6 49.5t-1.5 44t24 22zM120 551q10 12 42.5 4.5t53.5 -41.5t16 -91t-19 -82t-32 -46.5t-49.5 -34.5t-40.5 -19.5t-60.5 5t-67.5 38.5t-12.5 35t29.5 6.5t59 7
t51.5 30.5t21.5 36t-7.5 43.5t-8.5 51.5t8 33.5t16 23.5z" />
    <glyph glyph-name="semicolon" unicode="&#x37e;" horiz-adv-x="358" 
d="M227 888q15 10 49.5 4.5t47.5 -38.5t14 -49.5t-7 -34.5t-20 -27t-18 -25.5t-37 -3t-40.5 26.5t-5 31.5t-6 49.5t-1.5 44t24 22zM120 551q10 12 42.5 4.5t53.5 -41.5t16 -91t-19 -82t-32 -46.5t-49.5 -34.5t-40.5 -19.5t-60.5 5t-67.5 38.5t-12.5 35t29.5 6.5t59 7
t51.5 30.5t21.5 36t-7.5 43.5t-8.5 51.5t8 33.5t16 23.5z" />
    <glyph glyph-name="less" unicode="&#x3c;" horiz-adv-x="629" 
d="M371 1048q195 101 215 91.5t27.5 -28.5t-2.5 -39t-24 -32.5t-61.5 -41t-81.5 -39.5t-50 -23t-49 -25.5t-63.5 -34t-49 -26t-32 -16t-19 -23.5t152 -184t165 -188t-9 -24.5t-33.5 -9t-31.5 13t-33.5 22t-34.5 18t-38 41.5t-96 93.5t-119.5 121t-46 94t15.5 56t60 51.5
t238.5 132z" />
    <glyph glyph-name="equal" unicode="=" horiz-adv-x="1196" 
 />
    <glyph glyph-name="greater" unicode="&#x3e;" horiz-adv-x="664" 
d="M103 1190q14 10 34 4t34 -18t62 -42t58 -44t26 -24t40 -36t40 -36t82 -72t88 -90t26 -46t-6 -60t-36 -66t-60 -42t-46 -32t-32 -20t-50 -26t-70 -32t-66 -36t-44 -32t-38 -2t-22 26t2 38t14 34t58 44t76 52t82 46t68 34t24 26t6 34t-170 160t-186 172t-14 54t20 32z" />
    <glyph glyph-name="question" unicode="?" horiz-adv-x="696" 
d="M416 1402q46 11 84.5 3t69.5 -19.5t56.5 -39.5t34 -50t6.5 -66.5t-16 -70t-39 -65.5t-101.5 -97.5t-125 -91t-101.5 -103t-73.5 -72.5t-21 29.5t20 72.5t45.5 66.5t62.5 60t74 55t63.5 44.5t58.5 67.5t42 79.5t0 47.5t-28 27.5t-57 18t-77.5 -16t-52.5 -29.5t-33.5 -42.5
t-36.5 -27.5t-26 21t-13 42t25 61t71.5 60t88 35.5zM119 522q17 22 37 23.5t30.5 -6t37.5 -17.5t46 -26.5t11.5 -28t-22.5 -16t-44.5 -14.5t-58.5 0t-41 37t4 48z" />
    <glyph glyph-name="at" unicode="@" horiz-adv-x="982" 
 />
    <glyph glyph-name="A" unicode="A" horiz-adv-x="861" 
d="M582 1311q46 47 62 43t30 -16t16 -28t2.5 -53t6.5 -51t18 -90t13 -92.5t9 -49.5t85.5 -16t153 38t111.5 32.5t-76 -35t-156 -73.5t-79.5 -54t-36 -64.5t-8.5 -103.5t-16 -116t-12 -82t-22 -62t-40 -34t-36 14t-4 88.5t20 126t19 120.5t-42 58t-107 -15t-112 -15
t-93.5 -25.5t-132 -147t-123.5 -168.5t-52 -40t-33 17.5t-0.5 51.5t70 126.5t140.5 190.5t133 158.5t95.5 119t96.5 129.5t100 118zM620 1103q-10 70 -38.5 34.5t-52.5 -68t-98 -114t-13 -67t147.5 23.5t83.5 37t-10.5 56t-18.5 98z" />
    <glyph glyph-name="B" unicode="B" horiz-adv-x="682" 
d="M296 1474q28 29 52.5 27t35.5 -17t14.5 -35t-2 -38.5t-19.5 -51.5t-3 -44t29.5 -5.5t57.5 8.5t77 -14.5t69 -59.5t36 -98t-6.5 -94.5t-44 -78.5t-29 -44t31.5 -18.5t55 -47t27.5 -63t-6 -71t-62.5 -104.5t-143 -106.5t-119 -55.5t-73 -24t-63 -7t-39 11t-20.5 20t9 33
t44 29t96 31.5t124 55t110 78t43 89t-58 54t-145 -27.5t-120.5 -50t-40 3t-25 2t-30 -72.5t-45 -149t-43.5 -139t-42 -58.5t-34 -3.5t-11.5 20t-2.5 44t29 130t66.5 220.5t109 358t77.5 286.5t33.5 77.5zM512 1200q-29 20 -69.5 22.5t-82.5 -10t-82.5 -141.5t-47.5 -164.5
t61 -25t113 37t74 54.5t42 52t22.5 57t4 65.5t-34.5 52.5z" />
    <glyph glyph-name="C" unicode="C" horiz-adv-x="617" 
d="M578 1308q51 30 86.5 21t53.5 -32.5t7.5 -53t-36.5 -36.5t-63 -19.5t-81.5 -42t-113.5 -86.5t-138 -129.5t-95.5 -146t-29 -103.5t7 -65t32 -55t55.5 -28.5t69.5 -5.5t93 8t147.5 30t185 75t123 80t-3 -10t-91 -78t-175 -103.5t-171 -83.5t-108.5 -23t-99 2.5t-75.5 28
t-64 67.5t-41 110t10 128t49.5 116.5t83 119.5t144.5 142.5t141 108.5t97 64z" />
    <glyph glyph-name="D" unicode="D" horiz-adv-x="695" 
d="M318 1431q17 13 43.5 8.5t39.5 -21.5t18.5 -41t-6 -40t3 -25.5t102 -38t142 -67.5t90 -95t41 -80t6 -74t-25 -89.5t-67 -88t-91 -101.5t-136 -108t-167.5 -87.5t-159.5 -45.5t-98.5 -8t-23.5 30.5t8.5 126.5t119 428t112.5 349t18.5 38.5t30 29.5zM460 1180
q-63 20 -93 30.5t-47.5 -44t-31.5 -94t-32.5 -96.5t-63.5 -212t-51.5 -185.5t-2 -38.5t80 13t137 54t146.5 104t135 142.5t49 110t-30 87.5t-80.5 79.5t-115.5 49.5z" />
    <glyph glyph-name="E" unicode="E" horiz-adv-x="771" 
d="M334 1352q22 6 42 -4t28 -32t6 -38t128.5 0.5t284.5 6.5t224 -26t76 -30t2 -20t-44 -20t-94 -10t-108 1t-156.5 -3t-233 -7.5t-151 -34.5t-30.5 -69t27 -51t139 -15t128 -4t50 -2t40.5 -5.5t60.5 -3.5t70 0t22 -8t-16 -26t-70.5 -30.5t-174.5 -20.5t-208 1t-105 -11
t-21 -65.5t-5 -107t20.5 -111.5t57.5 -67t116.5 2t161 61.5t104.5 54.5t60 22t52 2t2 -30t-26 -32t-71.5 -42t-108 -62t-105 -52.5t-100.5 -30.5t-74 -10t-48 6t-56 30t-54 62t-34 96t-8 161t45 251.5t86 233t69 90.5z" />
    <glyph glyph-name="F" unicode="F" horiz-adv-x="570" 
d="M384 1492q30 7 36 -2.5t12 -37.5t0 -46.5t-15.5 -43t6 -25.5t121.5 32t140 32t60 -22.5t38 -35.5t5.5 -46t-28.5 -64.5t-52 -45.5t-90 -45.5t-168 -66t71 43.5t202.5 113t7.5 50.5t-60 7t-110.5 -18.5t-124 -31.5t-76.5 -47.5t-38.5 -64.5t-36 -83.5t-17 -58.5t30.5 0
t141.5 28.5t214 18t100.5 -4t-56.5 -15t-122 -28t-133 -44.5t-109.5 -49t-76 -32t-61 -144t-44 -175.5t-21 -71.5t-19 -46t-27 -20.5t-32.5 7t-10 54t13.5 89t20 124t23.5 116.5t-22 36.5t-51.5 11.5t-19 34t38.5 26t62.5 25.5t71.5 140t70.5 192t55.5 136t40 78.5
t38.5 19.5z" />
    <glyph glyph-name="G" unicode="G" horiz-adv-x="698" 
d="M525 1383q55 10 86 7t53.5 -13.5t41.5 -24.5t48 -43.5t34 -58.5t0 -40.5t-17.5 -38t-31.5 -3.5t-43.5 55.5t-72 45.5t-89 5.5t-96 -37.5t-125.5 -116t-102.5 -137.5t-53.5 -138.5t10.5 -157.5t92 -102t128 32.5t134 154.5t118.5 79.5t37 -59.5t-31 -143t-28.5 -172
t-72 -76.5t-20 126t-1.5 81t-85.5 -79t-86 -43t-111.5 6t-139.5 99.5t-57 189.5t44 178.5t94.5 161t124.5 145t112.5 83t105 34.5z" />
    <glyph glyph-name="H" unicode="H" horiz-adv-x="848" 
d="M494 1496q8 8 30.5 0.5t31.5 -44.5t3.5 -43t-13 -26t-29.5 -78t-85.5 -223t-83 -212.5t2 -39t45.5 12t72.5 13t120.5 30t83.5 29.5t26.5 52t61.5 195t48.5 163.5t15 7.5t29.5 -15t20 -29.5t5.5 -33.5t-20 -100.5t-31.5 -134t-4 -55.5t48.5 4t44.5 -35.5t-50.5 -61.5
t-67 -21t-28 -45.5t-58 -164t-63.5 -170t-54 -95t-18.5 34t24 104t14.5 67t19 98.5t17 91t-91 10.5t-185 -54.5t-107 -65t-70 -195.5t-65.5 -200.5t-36 -62.5t-38.5 0t-26 26.5t42.5 171t70 211.5t-9.5 59.5t-31 33t2 42.5t41 41t52 33.5t33.5 52t33.5 81.5t63.5 167
t93 241.5t54.5 121t16.5 11z" />
    <glyph glyph-name="I" unicode="I" horiz-adv-x="452" 
d="M472 1517q23 17 37 14t23.5 -16t27.5 -33.5t16 -26.5t-17 -31t4 -33.5t46.5 -17.5t49.5 -26t29.5 -29.5t8.5 -29t1 -41.5t-18 -7.5t-68 38.5t-89 26.5t-55.5 -14t-29 -41.5t-44 -111.5t-44 -116t-83.5 -245t-39 -238t56 -33.5t22.5 -29t-11 -29t-70 -12.5t-134.5 3
t-93.5 -7.5t-23 -3.5t-5 30t0.5 30t8.5 15.5t20 11t64.5 24t65.5 87t52.5 197.5t56 194t66 189.5t2.5 117t-39.5 -85t-10 -24.5t-13.5 86.5t19.5 61.5t39.5 33.5t54.5 13t49 25t31 45.5t36 39.5z" />
    <glyph glyph-name="J" unicode="J" horiz-adv-x="714" 
d="M688 1454q9 12 44 6t53.5 -30.5t22 -58.5t1 -70t-7 -67t-15.5 -82t-35.5 -144t-83 -218.5t-90 -172.5t-63.5 -80.5t-78 -72t-106 -61t-122 -27t-96 12.5t-60 34.5t-41.5 53t-11 89t2 57.5t31 71.5t61 94.5t105 83t233 117t-17 -16.5t-233 -141t-75.5 -131.5t-13.5 -112
t12.5 -61t23.5 -23.5t43 -7.5t104.5 22.5t133.5 90t92.5 116t57.5 106.5t31.5 86t20.5 74.5t38.5 150.5t28.5 149.5t3.5 66.5t-8 41.5t-1.5 31t15.5 23.5z" />
    <glyph glyph-name="K" unicode="K" horiz-adv-x="801" 
d="M458 1540q17 11 37 1.5t25.5 -33t16.5 -40t-33 -109t-91 -203.5t-74.5 -181.5t-16.5 -86t78 34.5t121.5 92.5t149.5 127t127.5 108t51 27.5t44 -7t36 -29t0 -36.5t-30.5 -42t-56.5 -40t-80 -56.5t-62 -50.5t-64 -53t-132 -102.5t11 -119.5t132 -79.5t58.5 -25.5t44 -14.5
t30.5 -21.5t-5.5 -25.5t-38 -14.5t-67.5 0t-80 16t-72.5 33t-69 43.5t-49.5 34.5t-67.5 45.5t-65 29t-39 -91.5t-87.5 -237.5t-92 -162.5t-36.5 8.5t-5 61.5t25.5 101.5t40 120t69 205.5t61.5 160t27.5 56.5t42 127t43.5 123.5t41.5 94.5t29 80t15 51t25.5 49t32 31z" />
    <glyph glyph-name="L" unicode="L" horiz-adv-x="627" 
d="M280 1381q20 18 50 9.5t40.5 -36.5t6.5 -86t-8.5 -86t-21.5 -88.5t-30 -84t-58 -122.5t-81.5 -174t-39 -90t6.5 -21.5t255.5 48t308 73t103.5 44.5t13 -5.5t-88.5 -61.5t-84 -50t-139 -69.5t-209 -67t-148.5 -39t-86 -19t-56 15t-28 34t19.5 84t51.5 110t83 173
t77.5 180.5t26.5 76.5t-15 4t-28 0t-11 36.5t11 55.5t36.5 88t42.5 68.5z" />
    <glyph glyph-name="M" unicode="M" horiz-adv-x="1363" 
d="M361 1364q38 56 70.5 35.5t33.5 -39t22 -62.5t47 -118t34.5 -209.5t33.5 -176t104 53t143 170t127 133t95 88t86.5 74t80 38t42 -19t25 -40t-10.5 -137t-36 -223t-23 -193.5t4.5 -101t28.5 -23.5t44.5 12.5t68 71t-23.5 -61.5t-113.5 -136t-69.5 -10t-36 29.5t-29.5 67.5
t-8.5 103t21 159.5t21.5 145t15 99t-25.5 40t-109 -105t-178.5 -214t-146 -150t-63.5 -24.5t-53 6t-63 33t-43.5 100.5t-24 181t-24 155t-81.5 -113t-97 -243.5t-59.5 -157.5t-48.5 -93.5t-44 -10t-44 21.5t-11 42t19 46t19 44.5t60.5 158.5t74 197.5t64 182.5t82.5 174z
" />
    <glyph glyph-name="N" unicode="N" horiz-adv-x="1054" 
d="M422 1394q26 -14 36 -32t28 -30t26 -26t22 -60t16 -124t6 -116t14 -84t34 -138t44 -130t42 -74t44 -40t50 28t46 102t68 194t78 219t76 154t83 83t70 25t49 -2t20 -19t-10 -30t-56 -64t-84 -124t-62 -122t-64 -194t-58 -164t-26 -64t-50 -98t-60 -58t-74 4t-70 20t-36 24
t-42 48t-56 118t-44 130t-26 110t-22 148t-26 74t-28 -26t-56 -90t-80 -156t-68 -168t-51 -111t-42 -16t-33 29t-10 50t40 130t74 184t46 102t32 82t56 148t54 116t36.5 42t43.5 -4z" />
    <glyph glyph-name="O" unicode="O" horiz-adv-x="771" 
d="M589 1415q84 28 106 18t30 -26t14 -40t-6 -40t-72 -52t-56 -48t22 -24t52 -64t58 -112t26 -82t2 -44t-12 -94t-32 -110t-79.5 -103t-110 -91t-96.5 -37t-92 -11t-68 8t-56 32t-68 78t-40 98t-6 86.5t9.5 86t21 71.5t41.5 87t92 148.5t105 130.5t87 73.5t128 60.5z
M502 1144q-15 12 -58.5 -21.5t-95 -108.5t-77.5 -144.5t-30 -114t2 -80.5t20 -54t62 -34t93.5 -4t104 56t72.5 60t26 38t18 46t8 54t-12 104t-44 108t-42 54t-21.5 24.5t-25.5 16.5z" />
    <glyph glyph-name="P" unicode="P" horiz-adv-x="728" 
d="M434 1518q20 12 46 2t38 -30t6 -35t-14 -39t-10 -42t4 -24t96 -50t122 -80t44 -56t20 -48t10 -54t-4 -66t-64 -100t-100 -86t-90 -44t-126 -40t-110 -24t-68 -4t-46 -26t-32 -68t-39 -103t-34.5 -80t-43 -19.5t-33.5 15t40 168.5t104 287t62 160t12 34t22.5 82.5t-18 76
t5.5 49.5t74 82t48 54t24 37t22 37t32 34zM476 1200q-22 4 -52 -22t-64 -102t-66 -145t-46 -99t56 -20t173.5 45.5t148 89t46.5 75.5t-2 44t-28 54t-84 54t-82 26z" />
    <glyph glyph-name="Q" unicode="Q" horiz-adv-x="943" 
d="M582 1342q42 16 64 12t38 -2t38 -12t52 -44t32 -58t-16 -54t-58 8t-106 34t-147.5 -66t-138 -143.5t-83 -126.5t-26 -114.5t35.5 -111t80 -57.5t111 -22.5t70 13.5t30 74t48 34t30 -38t28 -18t59 41t63 83t36 116.5t-7 121t-37 54.5t-48 -2t-36 -10t-48 -4t-22 30t42 38
t72 16t92.5 -5t74 -53.5t34.5 -115.5t-12 -131t-37.5 -98.5t-55.5 -81.5t-115.5 -87t-88.5 -70t-4 -64t4 -90.5t-6 -70.5t-20 -28t-30 18t-26 44t-18 36.5t-14 78.5t-44 56t-92 0t-96 22t-62 28t-58 60t-58 119.5t5 146t75 158.5t91.5 122.5t88 83.5t111.5 79.5t105 50.5z
" />
    <glyph glyph-name="R" unicode="R" horiz-adv-x="860" 
d="M533 1506q30 10 46 9t32 -10t24 -43t42 -40t64 -16t68 -54t56.5 -98t6 -143t-91.5 -166.5t-132.5 -121t-96 -59.5t-18 -34.5t63 -52t119.5 -91t82 -88.5t-103.5 9.5t-242 118.5t-169.5 86t-48 -16t-72 -130t-76 -128t-36 -30t-37 13t14 106t65 137t104 222t114 262
t68 144t76 128t78 86zM694 1277q-47 27 -87 20.5t-61.5 -29.5t-42 -53.5t-54.5 -82.5t-84 -162t-48 -114t38 -22t78 -0.5t104 54t125.5 109t70 128t7.5 90.5t-46 62z" />
    <glyph glyph-name="S" unicode="S" horiz-adv-x="506" 
d="M531 1439q37 12 65 7.5t51 -13t36 -29.5t17 -47t-7 -49t-26 -40t-27.5 -37.5t-36 -28t-34 0t12 63t2 64t-48 1t-79 -55t-85.5 -110t-40.5 -102t-3 -78t13 -96t20 -103t3 -119.5t-36.5 -122t-54 -81.5t-57.5 -54.5t-73 -23.5t-63 6t-46.5 43t-26 63t18 66t63 82.5t73.5 55
t54 34.5t-2 137.5t-12.5 194t35 126.5t70 98t84.5 75.5t70 42t70.5 30zM221 697q-15 25 -77.5 -53t-58 -107t19 -33t29.5 -0.5t27 16t33 31.5t33 48t10.5 51t-16.5 47z" />
    <glyph glyph-name="T" unicode="T" horiz-adv-x="807" 
d="M789 1237q104 -9 136.5 -14t114.5 -12t109 -28.5t2 -40t-66.5 -18.5t-77.5 4t-55.5 5t-108.5 7t-121.5 5t-50.5 -21t-46 -51t-75.5 -96t-96.5 -146t-92.5 -154.5t-43.5 -114.5t19.5 -55.5t50.5 -1.5t48.5 17.5t50 22.5t69.5 46t-3.5 -15.5t-61.5 -73.5t-79 -76.5
t-97 -48.5t-69.5 18.5t-37 64.5t-6.5 79t16 77t42 87.5t98 155.5t134 207.5t9.5 95t-152 -4t-149.5 -5t-82.5 -18.5t-67 2t-40 27.5t-1 14.5t34.5 27.5t62.5 39.5t222.5 13t229.5 -5t83.5 -4.5t148 -11.5z" />
    <glyph glyph-name="U" unicode="U" horiz-adv-x="999" 
d="M251 1430q16 13 64.5 6.5t57 -17t10 -38t-34 -114.5t-78 -209t-67 -223.5t-22 -166t22 -71t39.5 0t97 66t205 181t211.5 220t103.5 124t37.5 36.5t35 13t40 -6.5t33.5 -26t-1 -54t-64 -171.5t-74 -185.5t-26.5 -106t3.5 -75.5t39.5 -24t95.5 15.5t42 -20t-70.5 -72.5
t-86 -33t-31 -5.5t-17.5 -1t-55 31t-42 59t-9 93.5t33 130.5t56.5 116.5t-81.5 -63t-131 -131t-122.5 -111.5t-155.5 -121t-108 -33t-86 19.5t-48 48.5t-16.5 68.5t-1.5 68.5t2 46.5t15.5 92.5t40 164.5t53 172t52.5 186.5t39 119.5z" />
    <glyph glyph-name="V" unicode="V" horiz-adv-x="869" 
d="M897 1272q116 106 148 103.5t49 -42t14.5 -54t-37.5 -16.5t-110.5 -86t-115 -133.5t-101 -118.5t-79 -96t-204.5 -197t-216.5 -184.5t-71.5 -17t-69 14.5t-41.5 47t-22 113.5t2.5 157.5t12.5 106t9.5 68.5t9.5 123t-2.5 121t10 66.5t42 36.5t37 2t29.5 -27t24.5 -59
t2.5 -140t-19.5 -209t-14.5 -177.5t14.5 -79t39 15t76.5 59.5t71.5 61.5t83.5 88.5t150 155t125.5 140t153 157.5z" />
    <glyph glyph-name="W" unicode="W" horiz-adv-x="1184" 
d="M665 1252q42 57 72 55.5t50 -17.5t9.5 -90t-46.5 -295.5t-24.5 -259.5t126 104t206 279.5t112.5 167t40 55t36 40t33 -4.5t20 -39t-24.5 -68.5t-62.5 -113.5t-85 -152.5t-140.5 -196.5t-136.5 -160t-116 -81.5t-95 4t-37 74t-13 89t32 211.5t-16.5 91.5t-113.5 -143.5
t-81.5 -88.5t-44 -54.5t-44 -57t-96.5 -97t-105.5 -79.5t-43 18t-33.5 62.5t-12.5 108t22.5 118.5t34.5 113t66.5 173t69 160t32.5 56t45.5 0.5t45 -36t0 -51t-68.5 -147.5t-96 -266.5t19.5 -82.5t130 153t158 201.5t111 150.5t65 96.5z" />
    <glyph glyph-name="X" unicode="X" horiz-adv-x="853" 
d="M701 1324q52 36 88 30t49.5 -11t26 -18t4.5 -43t-38 -44t-45.5 -17.5t-28 -16t-56.5 -58.5t-78 -100t22 -176t66 -156t20 -44.5t14 -26t2 -35.5t-22 -20t-46 20t-58 76t-52 80t-34 56t-18.5 44t-18 16t-39.5 -14t-192 -208t-180 -216t-48 -64t-52 -22t-12 40t22 52
t19.5 44t18 28t26.5 42t56 76t80 100t116 150t86 118t-18 58t-66 84t-70 64t-52 36t-21 34.5t18 24t37 13.5t70 -12t94 -58t74 -80t44 -32t27 15.5t18 26t33 36.5t44 46t70 62z" />
    <glyph glyph-name="Y" unicode="Y" horiz-adv-x="716" 
d="M62 1399q11 16 47 6t86 -48t124 -184t92 -174t30 -60t22 -40t65 73.5t105.5 148t82.5 110t72.5 78t63 30.5t34 -28t-0.5 -58t-22 -46t-93.5 -102t-144 -182.5t-102.5 -182t-76 -141.5t-98 -200t-78 -178t-24 -42t-32 32t-16 80t18 68t38 94t88 176t64 136t-24 60t-58 94
t-104 162t-110 156t-50 82t-10.5 48t11.5 32z" />
    <glyph glyph-name="Z" unicode="Z" horiz-adv-x="718" 
d="M260 1361q44 4 84.5 2t143 -29.5t132.5 -41t66.5 -35.5t45.5 -39t11 -35t-17.5 -91t-119 -182.5t-208 -196.5t-31 -104t179.5 -40t200.5 -71t101.5 -61.5t-8.5 -22.5t-45.5 -11.5t-72.5 2t-68.5 18t-119 36.5t-141 30t-105.5 17t-106 -6t-80 -8t-27.5 21t-14.5 18.5
t3.5 30.5t200.5 186.5t239.5 234.5t89.5 131t-57.5 85t-124 36t-97.5 12.5t-95.5 -7.5t-47.5 -10.5t-29.5 13.5t-28.5 13t-12.5 25t11.5 38.5t27.5 18.5t47.5 12t72.5 11z" />
    <glyph glyph-name="bracketleft" unicode="[" horiz-adv-x="569" 
d="M519 1583q51 17 149 5t128 -22t56 -26t6 -36t-36 -30t-28 -6t-44 0t-60 0t-64 0t-62 0t-58 -14t-54 -72t-44 -104t-38 -112t-40 -114t-66 -164t-72 -202t-38 -118t-17 -82.5t10 -64t41 -25.5t38.5 -16.5t30 -12t21.5 -37.5t0.5 -37.5t-24 -16t-48.5 -12.5t-60 2t-60 14
t-58 18t-22.5 43.5t7.5 63.5t23.5 122.5t31.5 116.5t18 58t32 106t56 164.5t58 142.5t36 86t29 107.5t46.5 141t45.5 85.5t50 26t80 22z" />
    <glyph glyph-name="backslash" unicode="\" horiz-adv-x="569" 
 />
    <glyph glyph-name="bracketright" unicode="]" horiz-adv-x="539" 
d="M275 1567q24 14 56 10t174 -52t164 -66t24 -46t-26 -114t-50 -142t-80 -218t-100 -270t-68 -196t-37.5 -115.5t-26 -46t-40.5 -32.5t-128 -14t-117 2t-28 12t-17 26t26 44t56 40t54 4t50 -10t30 2t20.5 8.5t44.5 72.5t59.5 154t81.5 239.5t111.5 312t48 190t-19.5 31.5
t-68 18t-114 18t-62 6t-19.5 12.5t-18 22t-4.5 49.5t24 48z" />
    <glyph glyph-name="asciicircum" unicode="^" horiz-adv-x="566" 
d="M374 1588q24 12 54 4t46 -30t42 -102t42 -112t10 -52t-24 -28t-46 12t-54 68t-40 66t-54 -16t-98 -122t-76 -106t-42 -32t-38 -14t-26 12t-14 28t10 20t44 44t44 64t104 154t116 142z" />
    <glyph glyph-name="underscore" unicode="_" 
 />
    <glyph glyph-name="grave" unicode="`" horiz-adv-x="317" 
d="M57 1512q11 8 37 0t48 -22t106 -98t64 -94t-46 -6t-51 11t-104 61t-79 89t7.5 43.5t17.5 15.5z" />
    <glyph glyph-name="a" unicode="a" horiz-adv-x="593" 
d="M353 939q23 6 50.5 2t44 -17t31.5 -51t-13.5 -51t-51.5 9t-48 9t-49.5 -26.5t-60.5 -42.5t-74 -74t-42 -57.5t19.5 3.5t72 48.5t122 66.5t93 26.5t33.5 -27.5t16 -34.5t-4.5 -23t-15 -38.5t1.5 -58t25.5 -38.5t42.5 -6t66.5 41t-3.5 -17t-68 -68t-39 -14t-36.5 9
t-42.5 26.5t-31.5 44t-15.5 38.5t-18.5 27.5t-35.5 6.5t-73.5 -46.5t-98 -62.5t-81.5 -34t-46.5 -6.5t-23 22.5t-14.5 42.5t6.5 46.5t64 94t107 115.5t109.5 76.5t81 38.5z" />
    <glyph glyph-name="b" unicode="b" horiz-adv-x="468" 
d="M368 1518q10 8 34 4t48 -24t-6 -59.5t-68 -106.5t-89.5 -183.5t-43.5 -149.5t33.5 -55.5t84.5 -21t221 10t24 -4t-206.5 -23t-47.5 -68.5t26.5 -88.5t0.5 -65t-31 -72.5t-55.5 -65.5t-60 -36t-68.5 1t-65 38t-39 84t-9.5 110.5t48 175t78.5 192t91 208t68 156t32 44z
M232 829q-28 36 -51.5 2t-28 -68t-2.5 -62.5t17 -57.5t42 -28t46 22.5t26.5 52t-7 67.5t-42.5 72z" />
    <glyph glyph-name="c" unicode="c" horiz-adv-x="421" 
d="M218 919q97 38 132 19t34.5 -57t-69.5 -41t-119 -36.5t-65 -98t25 -97.5t81 -30.5t72.5 12.5t73.5 33t94.5 66.5t-2.5 -11.5t-100 -92.5t-80 -55t-69 -24.5t-81.5 -4t-90 47.5t-42 105.5t19 103t56.5 82.5t130 78.5z" />
    <glyph glyph-name="d" unicode="d" horiz-adv-x="487" 
d="M325 1506q12 17 33 15.5t39 -18t38.5 -47.5t36 -124.5t5 -179t-17 -108.5t19.5 -49t24.5 -48t-20.5 -36t-37 -9t-41.5 -55t-57.5 -117.5t-62 -96.5t-76.5 -81.5t-75.5 -48.5t-47 0.5t-37 33.5t-18.5 101t43.5 146t162 126.5t79.5 39t-281.5 -40t22.5 11.5t293 63t38 88.5
t12.5 114.5t-7 106.5t-47.5 108t-35.5 71.5t15 33zM258 820q-21 -9 -62 -49t-56 -74.5t-8 -55t60.5 34.5t70 90.5t17 49t-21.5 4.5z" />
    <glyph glyph-name="e" unicode="e" horiz-adv-x="413" 
d="M233 945q67 5 81.5 -22.5t13.5 -70t-40 -72t-103 -58.5q-18 -7 -32.5 -7.5t-24 1t-15 3t-6.5 -1.5q-18 -29 -18.5 -58t19 -53.5t43.5 -28.5t50 1.5t96 34.5t97.5 54.5t52.5 49.5t7 0t-44.5 -58t-66 -67.5t-64.5 -51.5t-66.5 -32.5t-81.5 -9t-60 18.5t-37 31t-28 42.5
t-11.5 67t20 92.5t46.5 83t70.5 66.5t101.5 45.5zM234 855q-7 7 -34.5 -7t-40 -31.5t-4.5 -25.5t34 6.5t41.5 29t3.5 28.5z" />
    <glyph glyph-name="f" unicode="f" horiz-adv-x="422" 
d="M424 1400q47 28 77.5 16t52 -33t33 -45t-5.5 -53t-33 -15t-43.5 26t-50 -5t-51.5 -64t-68 -131t-50 -122t40 -37t116 0t253 3.5t36 1t-240 -22.5t-119 -27t-65 -19t-44 -22t-24 -31t-94 -258t-99 -292t-45 -77.5t-63.5 -20.5t-57 44.5t-13 53t14 -5t22 -21.5t29 10.5
t119.5 308t42 265.5t-57.5 33t57.5 62t65.5 12.5t56 117.5t69.5 160.5t61.5 105.5t78.5 82z" />
    <glyph glyph-name="g" unicode="g" horiz-adv-x="514" 
d="M434 925q74 -5 58.5 -37t-31.5 -112t-30 -135.5t-40 -117t-40.5 -95t-36 -75.5t-71 -119t-114 -132.5t-105 -66.5t-91 7t-54.5 78t141 196t17.5 10t-129.5 -173t21.5 -54t47 2t64 42.5t68 62.5t66.5 89t70.5 128t43 94.5t41.5 110.5t-9 43t-102.5 -89.5t-104.5 -61.5
t-62.5 -7t-38 24.5t-6 73t52.5 130t98 116t100 57.5t69 16t56.5 -14.5t50.5 9.5zM327 819q-17 17 -51 -3.5t-76 -62t-70 -88.5t27 -14t99 72t65 64t6 32z" />
    <glyph glyph-name="h" unicode="h" horiz-adv-x="588" 
d="M340 1512q52 12 85 -13t-13 -88t-129 -265.5t-108 -287.5t-4 -62t41.5 41.5t45.5 38t45.5 28.5t45.5 13.5t45.5 -7t32 -29.5t14 -65t-5.5 -98.5t-1 -77.5t25.5 -46t63.5 -9.5t70 37t11.5 -3.5t-40 -53.5t-64.5 -41t-62 -18t-49 20t-34 59t-4 119.5t-11.5 96.5t-85 -35.5
t-103.5 -115t-52 -108.5t-42 -37.5t-39 23t-14 45.5t60 228.5t137 389t90 231t49 91z" />
    <glyph glyph-name="i" unicode="i" horiz-adv-x="274" 
d="M325 1252q22 -18 26.5 -78.5t41.5 -118t87 -91.5t91.5 -48t-2.5 -6.5t-87.5 35t-93.5 82t-73 80t-32.5 28.5t-16 4.5t-30 20t-17 45.5t17.5 40t38.5 19.5t49.5 -12.5zM165 949q22 5 50.5 -3t10 -58t-40.5 -130t-41.5 -130t-43.5 -86.5t-46 -39.5t-30.5 1.5t-1.5 46.5
t29.5 128.5t42.5 150.5t0.5 65.5t15 25.5t55.5 29z" />
    <glyph glyph-name="j" unicode="j" horiz-adv-x="366" 
d="M383 1191q31 22 73.5 6.5t57 -43t21.5 -80t17 -91t51 -73t-8 0t-74 96.5t-51 76t-48 14t-57 -31.5t-50 -2t-9 50t22 42.5t55 35zM260 934q22 7 42.5 -2.5t25 -35.5t-13.5 -88.5t-45.5 -147.5t-94.5 -245t-104 -216t-83 -92t-92 -37t-87 23t-40 48t45 0t84 1t75 71.5
t71 125t75.5 208.5t47.5 181t-21 39.5t-68.5 -31t-45.5 -16t49.5 34t106.5 102t73 77.5z" />
    <glyph glyph-name="k" unicode="k" horiz-adv-x="571" 
d="M272 1354q21 21 57.5 6t13 -129t-51.5 -228t12.5 -110.5t75 31.5t76.5 59.5t79.5 55t45.5 -13t-5 -61t-106 -86.5t-88.5 -77.5t9.5 -31t41.5 -68t96 -109t53.5 -70t-21 -18t-38 -8t-69 36t-88.5 97.5t-72 92.5t-41 43t-43 -93t-55.5 -152.5t-53 -43.5t-37 15.5t-2.5 32
t36.5 89.5t71.5 255.5t51 267.5t-21 18t-105 -163t-16.5 -15.5t81 131.5t58.5 134.5t55.5 112z" />
    <glyph glyph-name="l" unicode="l" horiz-adv-x="319" 
d="M264 1232q40 63 66.5 51t28.5 -31t-86.5 -195t-128 -327.5t-27.5 -170.5t43 -11t158 86.5t156 103t-37 -37t-99.5 -92t-66.5 -66t-80.5 -61.5t-83 -28.5t-52 16.5t-31.5 46t-2.5 99.5t69.5 236.5t95 241.5t78 139.5z" />
    <glyph glyph-name="m" unicode="m" horiz-adv-x="903" 
d="M129 921q38 52 62 50t31 -20t12 -33.5t10 -45t-40.5 -114.5t6.5 -21.5t89 79t68 0t39 -37.5t10 -50t8 -32t66 60t105.5 84.5t75.5 8.5t52.5 -47t58.5 -102t74.5 -98.5t68.5 -37.5t104 32.5t33 14.5t-82.5 -41.5t-58.5 -27t-46.5 -16.5t-55.5 6t-50 33.5t-60 68
t-51.5 70.5t-38.5 19t-48 -25.5t-68.5 -61.5t-68 -84t-29.5 -56.5t-26 -35t-40 -17t-27.5 20t-1.5 51.5t11.5 71t7 74t-23.5 42.5t-86.5 -57t-76.5 -92.5t-25.5 -47t-20 -22t-42 2t-35.5 26t15 65t50 151t43 129t-166.5 -98t-100 -61t154.5 117.5t114 105.5z" />
    <glyph glyph-name="n" unicode="n" horiz-adv-x="582" 
d="M152 924q21 10 53.5 -4t14 -52t-60.5 -125.5t-8.5 -48t81 80.5t68.5 53t45.5 18t55.5 -3t53 -50.5t23.5 -137t47 -93.5t88.5 33.5t64 64t18 17.5t-23 -44t-85 -90t-112.5 -62t-69 38t-28 124.5t-22.5 87t-70 -32t-99 -87.5t-73.5 -91.5t-51.5 -45.5t-37.5 12t-10 49
t17.5 89t37 126.5t-11 43.5t-85.5 -69.5t36 44t96 105.5t18.5 27.5t30 22.5z" />
    <glyph glyph-name="o" unicode="o" horiz-adv-x="360" 
d="M150 893q19 18 46.5 23t45.5 -3t30.5 -28.5t62.5 -19.5t124.5 -0.5t-31.5 -4.5t-120.5 -8.5t-12 -35.5t4 -63.5t0.5 -74.5t-6 -61t-15 -42t-29.5 -46.5t-48 -45.5t-52.5 -31.5t-52 -1t-45.5 30t-28 42.5t-9 77t12 88.5t32.5 70t13 34t-4.5 2.5t34.5 43t48 55zM200 736
q-22 27 -55 -15t-39.5 -89t5 -66t24 -22t35.5 16.5t37.5 84.5t-7.5 91z" />
    <glyph glyph-name="p" unicode="p" horiz-adv-x="473" 
d="M64 897q89 60 109 67t33.5 -5t16 -29.5t-10.5 -76.5t0 -48t37 22t60.5 24t68.5 11t48.5 -15.5t21 -22t12 -24.5t7.5 -19.5t2 -15t-2 -38t-21.5 -64t-52.5 -70t-60 -46.5t-53.5 -25t-59 -15.5t-48 8.5t-18 29.5t10.5 37.5t22.5 37.5t38.5 39t56.5 35.5t46.5 16.5
t-22.5 -23.5t-69 -53t-19 -38t38 -1.5t80 62.5t34 89.5t-71 18t-93.5 -55.5t-86 -145.5t-64 -162t-50.5 -144.5t-73.5 -178.5t-68.5 -76t-32.5 28.5t-3.5 38t16.5 50.5t38 101.5t101.5 273.5t92 240t37.5 110.5t4.5 66.5t-80.5 -40t27 25.5z" />
    <glyph glyph-name="q" unicode="q" horiz-adv-x="487" 
d="M389 923q20 15 50.5 10t42 -8.5t22 -13t13.5 -25.5t-27 -31t-27 -38t-16.5 -71.5t-47.5 -91t-38 -64.5t-82 -193t-83 -213.5t-5 -52.5t26 -9.5t62.5 24.5t70.5 70t49 83.5t-21 -68.5t-104.5 -154t-100 -42t-59 28.5t-22.5 50.5t15.5 88.5t77 197.5t60 143t-36 -18
t-70 -39t-52 -11t-38.5 18t-28.5 43t-1 57t52 88t107 103.5t102 73t65 40t44.5 25.5zM332 775q-10 2 -86.5 -53.5t-97.5 -80t-32 -42.5t2 -28t33 -0.5t47 28t88.5 87t59 78t-13.5 11.5z" />
    <glyph glyph-name="r" unicode="r" horiz-adv-x="441" 
d="M73 804q36 139 69.5 136t50.5 -30t-3.5 -66.5t-4 -37t43.5 20t51.5 28t39.5 13.5t57.5 -10t80.5 -36.5t100.5 -4t-13.5 -13t-155.5 -30.5t-123 -19t-73.5 -46.5t-55.5 -84t-39 -98.5t-24 -65.5t-43 -27t-43 23.5t-5 32.5t30 91.5t59.5 223z" />
    <glyph glyph-name="s" unicode="s" horiz-adv-x="318" 
d="M224 932q40 20 80 26t48.5 -15t-8 -41t-45 -22.5t-61.5 -41t-38 -91t2.5 -72.5t16.5 -78t-12 -99.5t-45 -60.5t-59.5 -28t-60.5 -9t-53.5 12t-35 49.5t105 139t17.5 6t-73.5 -118.5t49 -12t45 29.5t24.5 45t7 49t-15.5 100t0 116.5t43 67.5t68.5 48.5z" />
    <glyph glyph-name="t" unicode="t" horiz-adv-x="345" 
d="M228 1159q12 14 38 12t38 -16t20 -34t-3 -42t-21 -57.5t-26 -99.5t2 -72t62 -16t140.5 -6t-10.5 -14t-158.5 -29t-68 -18.5t-56 -111t-52 -140.5t-26.5 -47t-36 -18t-40 2t0.5 65t50.5 135t35 97t-26 14t-51.5 -5.5t-22 28t36.5 46.5t64 18.5t50 78t26 103t13 69.5t21 58
z" />
    <glyph glyph-name="u" unicode="u" horiz-adv-x="507" 
d="M416 857q21 11 36.5 8t21.5 -14.5t-12 -87t-24 -128.5t10 -74.5t55.5 -15.5t85.5 53t10.5 4.5t-66 -76.5t-53.5 -43t-53.5 -4t-49.5 24t-30 45.5t-2 65t11.5 66.5t-22.5 -3t-61.5 -67.5t-77.5 -64.5t-64.5 -36t-47 -11.5t-43.5 8.5t-25 37.5t10 76t50.5 137.5t-20.5 93
t-84 24.5t34 -5t86 4.5t44.5 33t39 -2t24 -24.5t-2 -41.5t-51 -126t-2.5 -90t147 118t126 116z" />
    <glyph glyph-name="v" unicode="v" horiz-adv-x="476" 
d="M391 905q11 9 27 8.5t28 -12t30 -29.5t50 -23.5t108 9t-1 -5.5t-127.5 -32t-77 -39t-60.5 -69t-78 -108t-58 -90t-36 -40t-48 -4t-38 36t-14 56t-20 84t-43.5 100t-12 72t41.5 28t48 -20t38 -75.5t23 -78t20 -16.5t93 116t87 115.5t20 17.5z" />
    <glyph glyph-name="w" unicode="w" horiz-adv-x="686" 
d="M84 864q-2 50 29.5 54.5t53 -9.5t20 -124.5t70 -40.5t117 89t67 -19.5t8.5 -140t8.5 -50.5t34 88t39.5 73t65.5 60.5t80 -17t167 -21.5t33 0.5t-165.5 -22.5t-98.5 -45t-38.5 -83t-57.5 -114.5t-67.5 -93t-36.5 -11.5t-35 46.5t-16.5 129.5t-26 75.5t-106.5 -101.5
t-99 -85t-35.5 23.5t1 69.5t10.5 93.5t-6.5 69.5t-8.5 40t-6.5 66z" />
    <glyph glyph-name="x" unicode="x" horiz-adv-x="486" 
d="M502 914q21 -3 25 -21.5t0 -41t-23 -30.5t-66.5 -39t-91.5 -65.5t-37 -60t39.5 -83t49.5 -50.5t52 91.5t3.5 -3t-51.5 -115t-49 -28t-55 33.5t-50 67.5t-48.5 18t-58.5 -46.5t-63.5 -48.5t-48.5 -23.5t-24 6t-5 28.5t15 32t66.5 62t74 68t20.5 36t-31.5 73t-53 61
t-74 -55.5t-64.5 -72t13 24.5t52.5 71t49.5 65.5t47 55t40 18.5t34.5 -36.5t32.5 -63.5t26 -52.5t27 -13.5t46.5 33t74.5 61t64.5 42t41.5 1.5z" />
    <glyph glyph-name="y" unicode="y" horiz-adv-x="509" 
d="M386 866q19 20 45 13t37 -23t7.5 -33t-1.5 -62.5t-7.5 -130.5t-18.5 -142t-41 -131.5t-84 -140t-122.5 -114t-125.5 -72t-87 -28.5t-62 0t-52 43.5t21 112t14.5 7.5t33 -73.5t104.5 15.5t100 70t87.5 81.5t67 101.5t56 152t22 126t1 47.5t-18.5 -5.5t-35.5 -32t-40 -38.5
t-66.5 -52t-75 -34.5t-58.5 11t-42 37t-13.5 57.5t5 47t27 95.5t48.5 92.5t42 10.5t24.5 -17.5t-2 -40.5t-28 -81t-13.5 -88t28 -21.5t46.5 26t40.5 37t68.5 89t68 88.5z" />
    <glyph glyph-name="z" unicode="z" horiz-adv-x="461" 
d="M364 933q16 2 45.5 -8.5t36.5 -20t7.5 -24.5t-1.5 -37.5t-17 -50t-66.5 -73t-88 -81t-53 -54t-47.5 -41t-1 -24t93.5 -14.5t113 -22.5t81 -4.5t101 19t15.5 1t-97.5 -27t-69 -24.5t-48.5 -21.5t-66.5 -10.5t-72 9t-79 12.5t-70.5 2.5t-32.5 -11t-30.5 -10t-29 3.5t-19 15
t-3.5 38.5t16.5 37.5t33.5 20.5t81 61.5t95 85t77.5 70t58.5 55.5t-14 15.5t-89.5 -27t-74 -40.5t-28.5 -14t-20 17t-2 39.5t42.5 52t86 46t84.5 29.5t51.5 10.5z" />
    <glyph glyph-name="braceleft" unicode="{" horiz-adv-x="570" 
d="M723 1705q77 62 123 12t50 -72t-20.5 -47.5t-46.5 -6.5t-44 -2.5t-51 -43.5t-76 -72.5t-68.5 -101t-73 -172.5t-74 -149t-78 -72.5t-67.5 -54t-18.5 -25t15.5 -45.5t27.5 -52.5t0.5 -82t-14.5 -97t-24 -67.5t-26.5 -54t-17.5 -63t-9.5 -72.5t3 -49.5t23.5 -26.5t39 -22.5
t32.5 -6t42 2.5t32.5 -10.5t-24 -29.5t-46 -32.5t-37.5 -10t-36 0.5t-40.5 7.5t-36.5 15t-29.5 22.5t-28 52.5t-10.5 77.5t15.5 77t48.5 155t37.5 136.5t-47 49.5t-62.5 40t-24 26.5t-15 51.5t28.5 61.5t69.5 44.5t52.5 20.5t35.5 16t44.5 35.5t41.5 33t20.5 29.5t25.5 49
t23 43.5t12 43.5t15.5 48.5t41.5 89.5t77.5 128.5t67 84t101.5 86.5z" />
    <glyph glyph-name="bar" unicode="|" horiz-adv-x="532" 
 />
    <glyph glyph-name="braceright" unicode="}" horiz-adv-x="619" 
d="M346 1721q22 3 60 -7t58 -36t30 -64t-6 -114t-28 -110t-62 -124t-62 -162t-2 -108t20.5 -47.5t28 -18t59.5 -10.5t76 -16t42 -24t2 -34t-14 -36t-24 -22t-66 -52t-70 -70t-46.5 -115t-76.5 -177t-106 -126t-94 -56t-98 -18t-70 8t-22 19.5t-32 61t38 11t140 15t138 156
t76.5 173t38.5 98.5t48 64t-21.5 59t-70 50t-24.5 91t0 76t14 50t46 140t72 160t42 96t6.5 54t-14 28t-66.5 -4t-64 -2t-10 36t30 58t46 41t38 8z" />
    <glyph glyph-name="asciitilde" unicode="~" horiz-adv-x="1196" 
 />
    <glyph glyph-name="Adieresis" unicode="&#xc4;" horiz-adv-x="1366" 
 />
    <glyph glyph-name="Aring" unicode="&#xc5;" horiz-adv-x="1366" 
 />
    <glyph glyph-name="Ccedilla" unicode="&#xc7;" horiz-adv-x="1479" 
 />
    <glyph glyph-name="Eacute" unicode="&#xc9;" horiz-adv-x="1366" 
 />
    <glyph glyph-name="Ntilde" unicode="&#xd1;" horiz-adv-x="1479" 
 />
    <glyph glyph-name="Odieresis" unicode="&#xd6;" horiz-adv-x="1593" 
 />
    <glyph glyph-name="Udieresis" unicode="&#xdc;" horiz-adv-x="1479" 
 />
    <glyph glyph-name="aacute" unicode="&#xe1;" 
 />
    <glyph glyph-name="agrave" unicode="&#xe0;" 
 />
    <glyph glyph-name="acircumflex" unicode="&#xe2;" 
 />
    <glyph glyph-name="adieresis" unicode="&#xe4;" 
 />
    <glyph glyph-name="atilde" unicode="&#xe3;" 
 />
    <glyph glyph-name="aring" unicode="&#xe5;" 
 />
    <glyph glyph-name="ccedilla" unicode="&#xe7;" horiz-adv-x="1024" 
 />
    <glyph glyph-name="eacute" unicode="&#xe9;" 
 />
    <glyph glyph-name="egrave" unicode="&#xe8;" 
 />
    <glyph glyph-name="ecircumflex" unicode="&#xea;" 
 />
    <glyph glyph-name="edieresis" unicode="&#xeb;" 
 />
    <glyph glyph-name="iacute" unicode="&#xed;" horiz-adv-x="569" 
 />
    <glyph glyph-name="igrave" unicode="&#xec;" horiz-adv-x="569" 
 />
    <glyph glyph-name="icircumflex" unicode="&#xee;" horiz-adv-x="569" 
 />
    <glyph glyph-name="idieresis" unicode="&#xef;" horiz-adv-x="569" 
 />
    <glyph glyph-name="ntilde" unicode="&#xf1;" horiz-adv-x="682" 
d="M255 1222q30 12 46.5 11t34 -10t39.5 -31t62 -26t78 0t58 -2t14 -20t-32 -32t-40 -25.5t-46 -17.5t-50 -10.5t-50 11.5t-52 36t-42 30t-70 -22t-56 -12t8 44t42 46t56 30zM167 872q14 14 54 -1.5t-14.5 -90t6 -11.5t109 74t78 7t55.5 -24t42 -105t32 -113t56 -34t70.5 -6
t66.5 11.5t61.5 36t-15.5 -20t-90 -68t-81 -27.5t-64 -2t-66 32t-56 113t-34 89t-34 2t-56 -35t-104 -99t-88 -82t-30 -10t-26.5 10.5t-21.5 24t2.5 53.5t29.5 81t40 71t18.5 53.5t-83.5 -7t23.5 14.5t119.5 63z" />
    <glyph glyph-name="oacute" unicode="&#xf3;" horiz-adv-x="465" 
d="M552 1340q66 31 114 31t64 -10t24 -38t4 -32t-34 0t-66 -10t-74 -49t-80 -67t-54 -46t-30 -22t-32 4t-24 26t-8 36t12 38t34 42t40 34t30 20t80 43zM253 940q44 16 70 10t34 -24t2 -40t-6 -42t8 -44t4 -30t2 -20t-4 -60t-20 -68t-14 -48t-20 -42t-28 -34t-28 -32t-52 -34
t-60 -26t-50 0t-42 20t-28 34t-16 46t6 76t28 90t32 56t36 54t54 68t40 52t52 38zM255 758q-6 2 -18 -14t-26 -26t-30 -44t-28 -48t-24 -60t2 -44t40 26t46 50t31 39t14 32t1 53t-8 36z" />
    <glyph glyph-name="ograve" unicode="&#xf2;" 
 />
    <glyph glyph-name="ocircumflex" unicode="&#xf4;" 
 />
    <glyph glyph-name="odieresis" unicode="&#xf6;" 
 />
    <glyph glyph-name="otilde" unicode="&#xf5;" 
 />
    <glyph glyph-name="uacute" unicode="&#xfa;" 
 />
    <glyph glyph-name="ugrave" unicode="&#xf9;" 
 />
    <glyph glyph-name="ucircumflex" unicode="&#xfb;" 
 />
    <glyph glyph-name="udieresis" unicode="&#xfc;" 
 />
    <glyph glyph-name="dagger" unicode="&#x2020;" 
 />
    <glyph glyph-name="degree" unicode="&#xb0;" horiz-adv-x="472" 
d="M247 1672q62 16 76.5 15t30 -10t12.5 -36.5t-11 -31t15 -18.5t43 -33t32 -46t4 -60t-26 -52t-91.5 -50t-107.5 3.5t-6 42.5t45.5 10.5t45.5 11.5t44 32t-2 42t-64.5 38t-66.5 15.5t-37 -15.5t-23.5 -35.5t-6.5 -48.5t20 -36t21.5 -27t25.5 -36.5t-31.5 -23t-80.5 11
t-32 30t-23 37.5t-16 50t14 62t50 74t60 54t86 30z" />
    <glyph glyph-name="cent" unicode="&#xa2;" horiz-adv-x="761" 
d="M590 1385q26 12 56 2t40 -38t10 -54.5t-10 -78t12 -85.5t24 -60t-36 -34t-60 8t-70 24t-76 -14t-82 -114t-82 -176t-2 -94t62 -12t66 6t50 26t54 60t43.5 61t6 2t-11.5 -47t-32.5 -74.5t-46 -68t-79.5 -41.5t-124 -10t-82 -8t-32 -72t-28 -120t-22 -76t-33 8.5t-24 62
t-1 79.5t24 124t6 106t-28 48t-14 64t-3.5 48t16 52t32.5 66.5t72 80t101 83.5t74 40t42 12t22 16t38 60t66 86t62 52zM628 1279q-12 2 -42 -26t-22 -44t48 -28t54 -1.5t4.5 43.5t-20 43.5t-22.5 12.5zM276 972q-25 -17 -46.5 -40t-35.5 -41t-18 -44t-2 -48t8 -22t22 16
t24 40t20 44t19.5 37.5t20.5 46.5t-12 11z" />
    <glyph glyph-name="sterling" unicode="&#xa3;" 
 />
    <glyph glyph-name="section" unicode="&#xa7;" horiz-adv-x="936" 
d="M811 1655q42 6 130 -6t120 -30t46 -28.5t22 -28t12 -39.5t-6 -36t-22.5 -25t-84.5 -70.5t1 6.5t44.5 84.5t-110.5 34.5t-122 10t-57.5 -8.5t-28 -18t-24.5 -35t-35.5 -39.5t-60 -20.5t-52.5 -14.5t-30 -44t30 -202t48 -216t-8 -82t-28 -70t-68 -82t-62 -86t-42 -102
t-56 -90t-72.5 -57.5t-104 -50t-89.5 -15.5t-46.5 11t-29.5 31t-11 37t21.5 12t87.5 20t124 70t68 80t16 56t-14 32t-29 39t12 40t23 29t-44 124t-50 140t-16 94t0 84t6 40t30 64t58 70t58 42t56 44t110 88t162 86t118 28zM411 1285q-10 0 -32 -24t-29.5 -37.5t-8 -30
t-0.5 -50.5t8 -68t9 -50.5t10 -34t35 -85.5t29 -84t14 -30t24 -9t20 20t17 51t8 76t-16 72t-31.5 72.5t-20 60t-14.5 85.5t-22 66z" />
    <glyph glyph-name="bullet" unicode="&#x2022;" horiz-adv-x="717" 
 />
    <glyph glyph-name="paragraph" unicode="&#xb6;" horiz-adv-x="1100" 
 />
    <glyph glyph-name="germandbls" unicode="&#xdf;" horiz-adv-x="1251" 
 />
    <glyph glyph-name="registered" unicode="&#xae;" horiz-adv-x="1509" 
 />
    <glyph glyph-name="copyright" unicode="&#xa9;" horiz-adv-x="1159" 
d="M598 1240q24 4 78 0t76 -10t58 -56t52 -60t62 -50t86 -114t44 -130.5t-4 -100t-28 -81.5t-46 -68t-100 -70t-138 -60t-134 -30t-122 -4t-132 38t-114 56t-72 70t-50 92t-12 92t24 108t56 116t92 108t94 76t120 48t110 30zM673 1155q-19 5 -69 -7t-138 -48t-132 -88
t-62 -82t-48 -94t-10 -134t106 -126t132 -68t98 -14t144 20t150 53t92 90t34 101t-10 80t-46 96t-134 88t-99.5 55t18 40t6.5 24t-32 14zM688 984q38 -4 54 -22t12 -50t-10 -42t-46 -2t-120 -18t-94 -48t-4 -46t30 -40t44 -22t52 -8t74 2t56 -8t0 -16t-26 -24t-80 -28
t-94 -2t-54 16t-44 26t-34 38t-30 66t-2 76t32 52t90 54t102 40t42 8.5t50 -2.5z" />
    <glyph glyph-name="trademark" unicode="&#x2122;" horiz-adv-x="1257" 
d="M419 1584q24 16 50 14t28 -14t30 -16t46 -2t36 -2t28 -16t-4 -16t-36 -22t-80 -28t-64 -8t-26 -16t-44 -34t-44 -36t-44 -70t-38 -92t22 -30t42 8t-2 -28t-34 -38t-56 -20t-54 20t-10 82t40 110t32 76t-36 24t-68 16t-16 46t114 46t134 22t54 24zM718 1496q13 16 31 14
t36 -14t34 -46t20 -58t2 -40t2 -24t56 26t67.5 39.5t28 20t25 26t32 18t37 2t28 -22t16.5 -61.5t-6 -150t-8 -128t3.5 -41t-20 -28t-37 -5.5t-30 20t-16.5 22.5t-6 26t8 76t6 76t0 40t0 28t-28 -4t-80 -56t-71.5 -54t-36 -10t-40.5 30t-32 62t-88 -40t-95.5 -67t-22 26
t15.5 51t62 86t69 100t38 60z" />
    <glyph glyph-name="acute" unicode="&#xb4;" horiz-adv-x="682" 
 />
    <glyph glyph-name="dieresis" unicode="&#xa8;" horiz-adv-x="682" 
 />
    <glyph glyph-name="notequal" unicode="&#x2260;" horiz-adv-x="1124" 
 />
    <glyph glyph-name="AE" unicode="&#xc6;" horiz-adv-x="2048" 
 />
    <glyph glyph-name="Oslash" unicode="&#xd8;" horiz-adv-x="1593" 
 />
    <glyph glyph-name="infinity" unicode="&#x221e;" horiz-adv-x="1460" 
 />
    <glyph glyph-name="plusminus" unicode="&#xb1;" horiz-adv-x="1124" 
 />
    <glyph glyph-name="lessequal" unicode="&#x2264;" horiz-adv-x="1124" 
 />
    <glyph glyph-name="greaterequal" unicode="&#x2265;" horiz-adv-x="1124" 
 />
    <glyph glyph-name="yen" unicode="&#xa5;" 
 />
    <glyph glyph-name="mu1" unicode="&#xb5;" horiz-adv-x="1180" 
 />
    <glyph glyph-name="partialdiff" unicode="&#x2202;" horiz-adv-x="1012" 
 />
    <glyph glyph-name="summation" unicode="&#x2211;" horiz-adv-x="1460" 
 />
    <glyph glyph-name="product" unicode="&#x220f;" horiz-adv-x="1686" 
 />
    <glyph glyph-name="pi1" horiz-adv-x="1124" 
 />
    <glyph glyph-name="integral" unicode="&#x222b;" horiz-adv-x="561" 
 />
    <glyph glyph-name="ordfeminine" unicode="&#xaa;" horiz-adv-x="758" 
 />
    <glyph glyph-name="ordmasculine" unicode="&#xba;" horiz-adv-x="748" 
 />
    <glyph glyph-name="Ohm" unicode="&#x2126;" horiz-adv-x="1573" 
 />
    <glyph glyph-name="ae" unicode="&#xe6;" horiz-adv-x="1821" 
 />
    <glyph glyph-name="oslash" unicode="&#xf8;" horiz-adv-x="1251" 
 />
    <glyph glyph-name="questiondown" unicode="&#xbf;" horiz-adv-x="753" 
d="M530 1354q9 7 35 3t76 -34t72 -64t20 -54t-22 -28t-38 2t-32 24t-28 18t-20 2t-26 6t-36 20t-26 30t-2 36t13.5 25.5t13.5 13.5zM523 891q12 14 32 6t26 -28t0 -40t-18 -34t-42 -36t-56 -46t-50 -52t-62 -68t-84 -124t-50 -124t3 -67.5t26.5 -35t54.5 0.5t101.5 45
t80.5 25t16 -28t-12 -38t-58 -54t-75.5 -46t-82 -18t-86.5 12t-47 35t-22 56t-11 102.5t58 164t82 126.5t62 68t120 112t94 86z" />
    <glyph glyph-name="exclamdown" unicode="&#xa1;" horiz-adv-x="446" 
d="M384 1100q20 12 48 6t36 -30t-38.5 -87t-57 -74t-30 -39.5t-15 44t20.5 120.5t36 60zM237 668q9 8 33 9t41.5 -26t8.5 -51.5t-60 -106.5t-58 -106.5t-38.5 -92t-48.5 -112.5t-37 -84.5t-36.5 -65t-32 -32t-22 -3t-17 25t-1.5 46t20.5 77t96.5 230t92 204t28.5 53.5
t30.5 35z" />
    <glyph glyph-name="logicalnot" unicode="&#xac;" horiz-adv-x="1196" 
 />
    <glyph glyph-name="radical" unicode="&#x221a;" horiz-adv-x="1124" 
 />
    <glyph glyph-name="florin" unicode="&#x192;" 
 />
    <glyph glyph-name="approxequal" unicode="&#x2248;" horiz-adv-x="1124" 
 />
    <glyph glyph-name="uni2206" unicode="&#x2206;" horiz-adv-x="1253" 
 />
    <glyph glyph-name="guillemotleft" unicode="&#xab;" 
 />
    <glyph glyph-name="guillemotright" unicode="&#xbb;" 
 />
    <glyph glyph-name="ellipsis" unicode="&#x2026;" horiz-adv-x="2048" 
 />
    <glyph glyph-name="Agrave" unicode="&#xc0;" horiz-adv-x="1366" 
 />
    <glyph glyph-name="Atilde" unicode="&#xc3;" horiz-adv-x="1366" 
 />
    <glyph glyph-name="Otilde" unicode="&#xd5;" horiz-adv-x="1593" 
 />
    <glyph glyph-name="OE" unicode="&#x152;" horiz-adv-x="2048" 
 />
    <glyph glyph-name="oe" unicode="&#x153;" horiz-adv-x="1933" 
 />
    <glyph glyph-name="endash" unicode="&#x2013;" 
 />
    <glyph glyph-name="emdash" unicode="&#x2014;" horiz-adv-x="2048" 
 />
    <glyph glyph-name="quotedblleft" unicode="&#x201c;" horiz-adv-x="682" 
 />
    <glyph glyph-name="quotedblright" unicode="&#x201d;" horiz-adv-x="682" 
 />
    <glyph glyph-name="quoteleft" unicode="&#x2018;" horiz-adv-x="455" 
 />
    <glyph glyph-name="quoteright" unicode="&#x2019;" horiz-adv-x="455" 
 />
    <glyph glyph-name="divide" unicode="&#xf7;" horiz-adv-x="1124" 
 />
    <glyph glyph-name="lozenge" unicode="&#x25ca;" horiz-adv-x="1012" 
 />
    <glyph glyph-name="ydieresis" unicode="&#xff;" horiz-adv-x="1024" 
 />
    <glyph glyph-name="Ydieresis" unicode="&#x178;" horiz-adv-x="1366" 
 />
    <glyph glyph-name="fraction" unicode="&#x2044;" horiz-adv-x="342" 
 />
    <glyph glyph-name="fraction" unicode="&#x2215;" horiz-adv-x="342" 
 />
    <glyph glyph-name="Euro" unicode="&#x20ac;" horiz-adv-x="1238" 
d="M843 1298q151 30 179 24t44 -4t52 -8t56 -22t38 -28t32 -34t16 -34t-4 -30t-20 -14t-24 6t-54 18t-74 18t-44 6t-108 -10t-138 -26t-86 -40t-82 -48t-44 -46t26 -24t196 -24.5t174 -34.5t-20 -30t-64 -24t-162 0.5t-158 2.5t-48 -16t-13.5 -23.5t16 -16t159.5 -12.5
t228 -22t96 -14.5t16 -16t-10 -33.5t-18 -20t-60 -6t-74 -2t-132 -6t-130 -22t-10 -38t22 -42t48 -50t70 -42t124 13t131 48.5t149 112t-1 -7.5t-129 -118t-36 -39t-68 -53t-102 -52t-78 -12t-76 20t-64 32t-71.5 58t-75.5 110t-114.5 78t-106.5 30t-4 40t30 34t76 22t52 34
t-30 28t-56 4t-114 -8t-110 -16t-52 -2t-38 28t-16 38t14 40t70 36t202 16t194 58t60 68t38 24t91.5 52.5t219.5 71.5z" />
    <glyph glyph-name="guilsinglleft" unicode="&#x2039;" horiz-adv-x="682" 
 />
    <glyph glyph-name="guilsinglright" unicode="&#x203a;" horiz-adv-x="682" 
 />
    <glyph glyph-name="fi" unicode="&#xf001;" horiz-adv-x="1024" 
 />
    <glyph glyph-name="fi" unicode="&#xfb01;" horiz-adv-x="1024" 
 />
    <glyph glyph-name="fl" unicode="&#xf002;" horiz-adv-x="1024" 
 />
    <glyph glyph-name="fl" unicode="&#xfb02;" horiz-adv-x="1024" 
 />
    <glyph glyph-name="daggerdbl" unicode="&#x2021;" 
 />
    <glyph glyph-name="glyph194" unicode="&#xb7;" horiz-adv-x="569" 
 />
    <glyph glyph-name="glyph194" unicode="&#x2219;" horiz-adv-x="569" 
 />
    <glyph glyph-name="quotesinglbase" unicode="&#x201a;" horiz-adv-x="455" 
 />
    <glyph glyph-name="quotedblbase" unicode="&#x201e;" horiz-adv-x="682" 
 />
    <glyph glyph-name="perthousand" unicode="&#x2030;" horiz-adv-x="2048" 
 />
    <glyph glyph-name="Acircumflex" unicode="&#xc2;" horiz-adv-x="1366" 
 />
    <glyph glyph-name="Ecircumflex" unicode="&#xca;" horiz-adv-x="1366" 
 />
    <glyph glyph-name="Aacute" unicode="&#xc1;" horiz-adv-x="1366" 
 />
    <glyph glyph-name="Edieresis" unicode="&#xcb;" horiz-adv-x="1366" 
 />
    <glyph glyph-name="Egrave" unicode="&#xc8;" horiz-adv-x="1366" 
 />
    <glyph glyph-name="Iacute" unicode="&#xcd;" horiz-adv-x="569" 
 />
    <glyph glyph-name="Icircumflex" unicode="&#xce;" horiz-adv-x="569" 
 />
    <glyph glyph-name="Idieresis" unicode="&#xcf;" horiz-adv-x="569" 
 />
    <glyph glyph-name="Igrave" unicode="&#xcc;" horiz-adv-x="569" 
 />
    <glyph glyph-name="Oacute" unicode="&#xd3;" horiz-adv-x="1593" 
 />
    <glyph glyph-name="Ocircumflex" unicode="&#xd4;" horiz-adv-x="1593" 
 />
    <glyph glyph-name="Ograve" unicode="&#xd2;" horiz-adv-x="1593" 
 />
    <glyph glyph-name="Uacute" unicode="&#xda;" horiz-adv-x="1479" 
 />
    <glyph glyph-name="Ucircumflex" unicode="&#xdb;" horiz-adv-x="1479" 
 />
    <glyph glyph-name="Ugrave" unicode="&#xd9;" horiz-adv-x="1479" 
 />
    <glyph glyph-name="dotlessi" unicode="&#x131;" horiz-adv-x="569" 
 />
    <glyph glyph-name="circumflex" unicode="&#x2c6;" horiz-adv-x="612" 
 />
    <glyph glyph-name="tilde" unicode="&#x2dc;" horiz-adv-x="682" 
 />
    <glyph glyph-name="uni02C9" unicode="&#x2c9;" horiz-adv-x="682" 
 />
    <glyph glyph-name="breve" unicode="&#x2d8;" horiz-adv-x="682" 
 />
    <glyph glyph-name="dotaccent" unicode="&#x2d9;" horiz-adv-x="682" 
 />
    <glyph glyph-name="ring" unicode="&#x2da;" horiz-adv-x="682" 
 />
    <glyph glyph-name="cedilla" unicode="&#xb8;" horiz-adv-x="682" 
 />
    <glyph glyph-name="hungarumlaut" unicode="&#x2dd;" horiz-adv-x="682" 
 />
    <glyph glyph-name="ogonek" unicode="&#x2db;" horiz-adv-x="682" 
 />
    <glyph glyph-name="caron" unicode="&#x2c7;" horiz-adv-x="682" 
 />
    <glyph glyph-name="Lslash" unicode="&#x141;" 
 />
    <glyph glyph-name="lslash" unicode="&#x142;" horiz-adv-x="455" 
 />
    <glyph glyph-name="Scaron" unicode="&#x160;" horiz-adv-x="1366" 
 />
    <glyph glyph-name="scaron" unicode="&#x161;" horiz-adv-x="1024" 
 />
    <glyph glyph-name="Zcaron" unicode="&#x17d;" horiz-adv-x="1251" 
 />
    <glyph glyph-name="zcaron" unicode="&#x17e;" horiz-adv-x="1024" 
 />
    <glyph glyph-name="brokenbar" unicode="&#xa6;" horiz-adv-x="532" 
 />
    <glyph glyph-name="Eth" unicode="&#xd0;" horiz-adv-x="1479" 
 />
    <glyph glyph-name="eth" unicode="&#xf0;" 
 />
    <glyph glyph-name="Yacute" unicode="&#xdd;" horiz-adv-x="1366" 
 />
    <glyph glyph-name="yacute" unicode="&#xfd;" horiz-adv-x="1024" 
 />
    <glyph glyph-name="Thorn" unicode="&#xde;" horiz-adv-x="1366" 
 />
    <glyph glyph-name="thorn" unicode="&#xfe;" 
 />
    <glyph glyph-name="minus" unicode="&#x2212;" horiz-adv-x="1196" 
 />
    <glyph glyph-name="multiply" unicode="&#xd7;" horiz-adv-x="1196" 
 />
    <glyph glyph-name="onesuperior" unicode="&#xb9;" horiz-adv-x="682" 
 />
    <glyph glyph-name="twosuperior" unicode="&#xb2;" horiz-adv-x="682" 
 />
    <glyph glyph-name="threesuperior" unicode="&#xb3;" horiz-adv-x="682" 
 />
    <glyph glyph-name="onehalf" unicode="&#xbd;" horiz-adv-x="1708" 
 />
    <glyph glyph-name="onequarter" unicode="&#xbc;" horiz-adv-x="1708" 
 />
    <glyph glyph-name="threequarters" unicode="&#xbe;" horiz-adv-x="1708" 
 />
    <glyph glyph-name="franc" unicode="&#x20a3;" 
 />
    <glyph glyph-name="Gbreve" unicode="&#x11e;" horiz-adv-x="1593" 
 />
    <glyph glyph-name="gbreve" unicode="&#x11f;" 
 />
    <glyph glyph-name="Idotaccent" unicode="&#x130;" horiz-adv-x="569" 
 />
    <glyph glyph-name="Scedilla" unicode="&#x15e;" horiz-adv-x="1366" 
 />
    <glyph glyph-name="scedilla" unicode="&#x15f;" horiz-adv-x="1024" 
 />
    <glyph glyph-name="Cacute" unicode="&#x106;" horiz-adv-x="1479" 
 />
    <glyph glyph-name="cacute" unicode="&#x107;" horiz-adv-x="1024" 
 />
    <glyph glyph-name="Ccaron" unicode="&#x10c;" horiz-adv-x="1479" 
 />
    <glyph glyph-name="ccaron" unicode="&#x10d;" horiz-adv-x="1024" 
 />
    <glyph glyph-name="dmacron" unicode="&#x111;" 
 />
    <glyph glyph-name="macron" unicode="&#xaf;" horiz-adv-x="1131" 
 />
    <glyph glyph-name="periodcentered" horiz-adv-x="682" 
 />
    <glyph glyph-name="Abreve" unicode="&#x102;" horiz-adv-x="1366" 
 />
    <glyph glyph-name="abreve" unicode="&#x103;" 
 />
    <glyph glyph-name="Aogonek" unicode="&#x104;" horiz-adv-x="1366" 
 />
    <glyph glyph-name="aogonek" unicode="&#x105;" 
 />
    <glyph glyph-name="Dcaron" unicode="&#x10e;" horiz-adv-x="1479" 
 />
    <glyph glyph-name="dcaron" unicode="&#x10f;" horiz-adv-x="1259" 
 />
    <glyph glyph-name="Dslash" unicode="&#x110;" horiz-adv-x="1479" 
 />
    <glyph glyph-name="Eogonek" unicode="&#x118;" horiz-adv-x="1366" 
 />
    <glyph glyph-name="eogonek" unicode="&#x119;" 
 />
    <glyph glyph-name="Ecaron" unicode="&#x11a;" horiz-adv-x="1366" 
 />
    <glyph glyph-name="ecaron" unicode="&#x11b;" 
 />
    <glyph glyph-name="Lacute" unicode="&#x139;" 
 />
    <glyph glyph-name="lacute" unicode="&#x13a;" horiz-adv-x="455" 
 />
    <glyph glyph-name="Lcaron" unicode="&#x13d;" 
 />
    <glyph glyph-name="lcaron" unicode="&#x13e;" horiz-adv-x="597" 
 />
    <glyph glyph-name="Ldot" unicode="&#x13f;" 
 />
    <glyph glyph-name="ldot" unicode="&#x140;" horiz-adv-x="684" 
 />
    <glyph glyph-name="Nacute" unicode="&#x143;" horiz-adv-x="1479" 
 />
    <glyph glyph-name="nacute" unicode="&#x144;" 
 />
    <glyph glyph-name="Ncaron" unicode="&#x147;" horiz-adv-x="1479" 
 />
    <glyph glyph-name="ncaron" unicode="&#x148;" 
 />
    <glyph glyph-name="Odblacute" unicode="&#x150;" horiz-adv-x="1593" 
 />
    <glyph glyph-name="odblacute" unicode="&#x151;" 
 />
    <glyph glyph-name="Racute" unicode="&#x154;" horiz-adv-x="1479" 
 />
    <glyph glyph-name="racute" unicode="&#x155;" horiz-adv-x="682" 
 />
    <glyph glyph-name="Rcaron" unicode="&#x158;" horiz-adv-x="1479" 
 />
    <glyph glyph-name="rcaron" unicode="&#x159;" horiz-adv-x="682" 
 />
    <glyph glyph-name="Sacute" unicode="&#x15a;" horiz-adv-x="1366" 
 />
    <glyph glyph-name="sacute" unicode="&#x15b;" horiz-adv-x="1024" 
 />
    <glyph glyph-name="Tcedilla" unicode="&#x162;" horiz-adv-x="1251" 
 />
    <glyph glyph-name="tcedilla" unicode="&#x163;" horiz-adv-x="569" 
 />
    <glyph glyph-name="Tcaron" unicode="&#x164;" horiz-adv-x="1251" 
 />
    <glyph glyph-name="tcaron" unicode="&#x165;" horiz-adv-x="768" 
 />
    <glyph glyph-name="Uring" unicode="&#x16e;" horiz-adv-x="1479" 
 />
    <glyph glyph-name="uring" unicode="&#x16f;" 
 />
    <glyph glyph-name="Udblacute" unicode="&#x170;" horiz-adv-x="1479" 
 />
    <glyph glyph-name="udblacute" unicode="&#x171;" 
 />
    <glyph glyph-name="Zacute" unicode="&#x179;" horiz-adv-x="1251" 
 />
    <glyph glyph-name="zacute" unicode="&#x17a;" horiz-adv-x="1024" 
 />
    <glyph glyph-name="Zdot" unicode="&#x17b;" horiz-adv-x="1251" 
 />
    <glyph glyph-name="zdot" unicode="&#x17c;" horiz-adv-x="1024" 
 />
    <glyph glyph-name="Gamma" unicode="&#x393;" horiz-adv-x="1128" 
 />
    <glyph glyph-name="Theta" unicode="&#x398;" horiz-adv-x="1593" 
 />
    <glyph glyph-name="Phi" unicode="&#x3a6;" horiz-adv-x="1634" 
 />
    <glyph glyph-name="alpha" unicode="&#x3b1;" horiz-adv-x="1184" 
 />
    <glyph glyph-name="delta" unicode="&#x3b4;" horiz-adv-x="1140" 
 />
    <glyph glyph-name="epsilon" unicode="&#x3b5;" horiz-adv-x="913" 
 />
    <glyph glyph-name="sigma" unicode="&#x3c3;" horiz-adv-x="1264" 
 />
    <glyph glyph-name="tau" unicode="&#x3c4;" horiz-adv-x="809" 
 />
    <glyph glyph-name="phi" unicode="&#x3c6;" horiz-adv-x="1328" 
 />
    <glyph glyph-name="underscoredbl" unicode="&#x2017;" horiz-adv-x="1131" 
 />
    <glyph glyph-name="exclamdbl" unicode="&#x203c;" horiz-adv-x="1024" 
 />
    <glyph glyph-name="nsuperior" unicode="&#x207f;" horiz-adv-x="747" 
 />
    <glyph glyph-name="peseta" unicode="&#x20a7;" horiz-adv-x="2240" 
 />
    <glyph glyph-name="arrowleft" unicode="&#x2190;" horiz-adv-x="2048" 
 />
    <glyph glyph-name="arrowup" unicode="&#x2191;" horiz-adv-x="1024" 
 />
    <glyph glyph-name="arrowright" unicode="&#x2192;" horiz-adv-x="2048" 
 />
    <glyph glyph-name="arrowdown" unicode="&#x2193;" horiz-adv-x="1024" 
 />
    <glyph glyph-name="arrowboth" unicode="&#x2194;" horiz-adv-x="2048" 
 />
    <glyph glyph-name="arrowupdn" unicode="&#x2195;" horiz-adv-x="1024" 
 />
    <glyph glyph-name="arrowupdnbse" unicode="&#x21a8;" horiz-adv-x="1024" 
 />
    <glyph glyph-name="orthogonal" unicode="&#x221f;" horiz-adv-x="2005" 
 />
    <glyph glyph-name="intersection" unicode="&#x2229;" horiz-adv-x="1472" 
 />
    <glyph glyph-name="equivalence" unicode="&#x2261;" horiz-adv-x="1195" 
 />
    <glyph glyph-name="house" unicode="&#x2302;" horiz-adv-x="1237" 
 />
    <glyph glyph-name="revlogicalnot" unicode="&#x2310;" horiz-adv-x="1196" 
 />
    <glyph glyph-name="integraltp" unicode="&#x2320;" horiz-adv-x="1237" 
 />
    <glyph glyph-name="integralbt" unicode="&#x2321;" horiz-adv-x="1237" 
 />
    <glyph glyph-name="SF100000" unicode="&#x2500;" horiz-adv-x="1451" 
 />
    <glyph glyph-name="SF110000" unicode="&#x2502;" horiz-adv-x="1280" 
 />
    <glyph glyph-name="SF010000" unicode="&#x250c;" horiz-adv-x="1451" 
 />
    <glyph glyph-name="SF030000" unicode="&#x2510;" horiz-adv-x="1451" 
 />
    <glyph glyph-name="SF020000" unicode="&#x2514;" horiz-adv-x="1451" 
 />
    <glyph glyph-name="SF040000" unicode="&#x2518;" horiz-adv-x="1451" 
 />
    <glyph glyph-name="SF080000" unicode="&#x251c;" horiz-adv-x="1451" 
 />
    <glyph glyph-name="SF090000" unicode="&#x2524;" horiz-adv-x="1451" 
 />
    <glyph glyph-name="SF060000" unicode="&#x252c;" horiz-adv-x="1451" 
 />
    <glyph glyph-name="SF070000" unicode="&#x2534;" horiz-adv-x="1451" 
 />
    <glyph glyph-name="SF050000" unicode="&#x253c;" horiz-adv-x="1451" 
 />
    <glyph glyph-name="SF430000" unicode="&#x2550;" horiz-adv-x="1451" 
 />
    <glyph glyph-name="SF240000" unicode="&#x2551;" horiz-adv-x="1451" 
 />
    <glyph glyph-name="SF510000" unicode="&#x2552;" horiz-adv-x="1451" 
 />
    <glyph glyph-name="SF520000" unicode="&#x2553;" horiz-adv-x="1451" 
 />
    <glyph glyph-name="SF390000" unicode="&#x2554;" horiz-adv-x="1451" 
 />
    <glyph glyph-name="SF220000" unicode="&#x2555;" horiz-adv-x="1451" 
 />
    <glyph glyph-name="SF210000" unicode="&#x2556;" horiz-adv-x="1451" 
 />
    <glyph glyph-name="SF250000" unicode="&#x2557;" horiz-adv-x="1451" 
 />
    <glyph glyph-name="SF500000" unicode="&#x2558;" horiz-adv-x="1451" 
 />
    <glyph glyph-name="SF490000" unicode="&#x2559;" horiz-adv-x="1451" 
 />
    <glyph glyph-name="SF380000" unicode="&#x255a;" horiz-adv-x="1451" 
 />
    <glyph glyph-name="SF280000" unicode="&#x255b;" horiz-adv-x="1451" 
 />
    <glyph glyph-name="SF270000" unicode="&#x255c;" horiz-adv-x="1451" 
 />
    <glyph glyph-name="SF260000" unicode="&#x255d;" horiz-adv-x="1451" 
 />
    <glyph glyph-name="SF360000" unicode="&#x255e;" horiz-adv-x="1451" 
 />
    <glyph glyph-name="SF370000" unicode="&#x255f;" horiz-adv-x="1451" 
 />
    <glyph glyph-name="SF420000" unicode="&#x2560;" horiz-adv-x="1451" 
 />
    <glyph glyph-name="SF190000" unicode="&#x2561;" horiz-adv-x="1451" 
 />
    <glyph glyph-name="SF200000" unicode="&#x2562;" horiz-adv-x="1451" 
 />
    <glyph glyph-name="SF230000" unicode="&#x2563;" horiz-adv-x="1451" 
 />
    <glyph glyph-name="SF470000" unicode="&#x2564;" horiz-adv-x="1451" 
 />
    <glyph glyph-name="SF480000" unicode="&#x2565;" horiz-adv-x="1451" 
 />
    <glyph glyph-name="SF410000" unicode="&#x2566;" horiz-adv-x="1451" 
 />
    <glyph glyph-name="SF450000" unicode="&#x2567;" horiz-adv-x="1451" 
 />
    <glyph glyph-name="SF460000" unicode="&#x2568;" horiz-adv-x="1451" 
 />
    <glyph glyph-name="SF400000" unicode="&#x2569;" horiz-adv-x="1451" 
 />
    <glyph glyph-name="SF540000" unicode="&#x256a;" horiz-adv-x="1451" 
 />
    <glyph glyph-name="SF530000" unicode="&#x256b;" horiz-adv-x="1451" 
 />
    <glyph glyph-name="SF440000" unicode="&#x256c;" horiz-adv-x="1451" 
 />
    <glyph glyph-name="upblock" unicode="&#x2580;" horiz-adv-x="1451" 
 />
    <glyph glyph-name="dnblock" unicode="&#x2584;" horiz-adv-x="1451" 
 />
    <glyph glyph-name="block" unicode="&#x2588;" horiz-adv-x="1451" 
 />
    <glyph glyph-name="lfblock" unicode="&#x258c;" horiz-adv-x="1451" 
 />
    <glyph glyph-name="rtblock" unicode="&#x2590;" horiz-adv-x="1451" 
 />
    <glyph glyph-name="ltshade" unicode="&#x2591;" horiz-adv-x="1451" 
 />
    <glyph glyph-name="shade" unicode="&#x2592;" horiz-adv-x="1451" 
 />
    <glyph glyph-name="dkshade" unicode="&#x2593;" horiz-adv-x="1493" 
 />
    <glyph glyph-name="filledbox" unicode="&#x25a0;" horiz-adv-x="1237" 
 />
    <glyph glyph-name="filledrect" unicode="&#x25ac;" horiz-adv-x="2048" 
 />
    <glyph glyph-name="triagup" unicode="&#x25b2;" horiz-adv-x="2027" 
 />
    <glyph glyph-name="triagrt" unicode="&#x25ba;" horiz-adv-x="2027" 
 />
    <glyph glyph-name="triagdn" unicode="&#x25bc;" horiz-adv-x="2027" 
 />
    <glyph glyph-name="triaglf" unicode="&#x25c4;" horiz-adv-x="2027" 
 />
    <glyph glyph-name="circle" unicode="&#x25cb;" horiz-adv-x="1237" 
 />
    <glyph glyph-name="invbullet" unicode="&#x25d8;" horiz-adv-x="1237" 
 />
    <glyph glyph-name="invcircle" unicode="&#x25d9;" horiz-adv-x="1237" 
 />
    <glyph glyph-name="smileface" unicode="&#x263a;" horiz-adv-x="2091" 
 />
    <glyph glyph-name="invsmileface" unicode="&#x263b;" horiz-adv-x="2155" 
 />
    <glyph glyph-name="sun" unicode="&#x263c;" horiz-adv-x="1877" 
 />
    <glyph glyph-name="female" unicode="&#x2640;" horiz-adv-x="1536" 
 />
    <glyph glyph-name="male" unicode="&#x2642;" horiz-adv-x="1536" 
 />
    <glyph glyph-name="spade" unicode="&#x2660;" horiz-adv-x="1088" 
 />
    <glyph glyph-name="club" unicode="&#x2663;" horiz-adv-x="1344" 
 />
    <glyph glyph-name="heart" unicode="&#x2665;" horiz-adv-x="1216" 
 />
    <glyph glyph-name="diamond" unicode="&#x2666;" horiz-adv-x="1045" 
 />
    <glyph glyph-name="musicalnote" unicode="&#x266a;" horiz-adv-x="1024" 
 />
    <glyph glyph-name="musicalnotedbl" unicode="&#x266b;" horiz-adv-x="1536" 
 />
    <glyph glyph-name="IJ" unicode="&#x132;" horiz-adv-x="1505" 
 />
    <glyph glyph-name="ij" unicode="&#x133;" horiz-adv-x="909" 
 />
    <glyph glyph-name="napostrophe" unicode="&#x149;" horiz-adv-x="1237" 
 />
    <glyph glyph-name="minute" unicode="&#x2032;" horiz-adv-x="384" 
 />
    <glyph glyph-name="second" unicode="&#x2033;" horiz-adv-x="725" 
 />
    <glyph glyph-name="afii61248" unicode="&#x2105;" horiz-adv-x="1813" 
 />
    <glyph glyph-name="afii61289" unicode="&#x2113;" horiz-adv-x="662" 
 />
    <glyph glyph-name="H22073" unicode="&#x25a1;" horiz-adv-x="1237" 
 />
    <glyph glyph-name="H18543" unicode="&#x25aa;" horiz-adv-x="726" 
 />
    <glyph glyph-name="H18551" unicode="&#x25ab;" horiz-adv-x="726" 
 />
    <glyph glyph-name="H18533" unicode="&#x25cf;" horiz-adv-x="1237" 
 />
    <glyph glyph-name="openbullet" unicode="&#x25e6;" horiz-adv-x="726" 
 />
    <glyph glyph-name="Amacron" unicode="&#x100;" horiz-adv-x="1366" 
 />
    <glyph glyph-name="amacron" unicode="&#x101;" 
 />
    <glyph glyph-name="Ccircumflex" unicode="&#x108;" horiz-adv-x="1479" 
 />
    <glyph glyph-name="ccircumflex" unicode="&#x109;" horiz-adv-x="1024" 
 />
    <glyph glyph-name="Cdot" unicode="&#x10a;" horiz-adv-x="1479" 
 />
    <glyph glyph-name="cdot" unicode="&#x10b;" horiz-adv-x="1024" 
 />
    <glyph glyph-name="Emacron" unicode="&#x112;" horiz-adv-x="1366" 
 />
    <glyph glyph-name="emacron" unicode="&#x113;" 
 />
    <glyph glyph-name="Ebreve" unicode="&#x114;" horiz-adv-x="1366" 
 />
    <glyph glyph-name="ebreve" unicode="&#x115;" 
 />
    <glyph glyph-name="Edot" unicode="&#x116;" horiz-adv-x="1366" 
 />
    <glyph glyph-name="edot" unicode="&#x117;" 
 />
    <glyph glyph-name="Gcircumflex" unicode="&#x11c;" horiz-adv-x="1593" 
 />
    <glyph glyph-name="gcircumflex" unicode="&#x11d;" 
 />
    <glyph glyph-name="Gdot" unicode="&#x120;" horiz-adv-x="1593" 
 />
    <glyph glyph-name="gdot" unicode="&#x121;" 
 />
    <glyph glyph-name="Gcedilla" unicode="&#x122;" horiz-adv-x="1593" 
 />
    <glyph glyph-name="gcedilla" unicode="&#x123;" 
 />
    <glyph glyph-name="Hcircumflex" unicode="&#x124;" horiz-adv-x="1479" 
 />
    <glyph glyph-name="hcircumflex" unicode="&#x125;" 
 />
    <glyph glyph-name="Hbar" unicode="&#x126;" horiz-adv-x="1479" 
 />
    <glyph glyph-name="hbar" unicode="&#x127;" 
 />
    <glyph glyph-name="Itilde" unicode="&#x128;" horiz-adv-x="569" 
 />
    <glyph glyph-name="itilde" unicode="&#x129;" horiz-adv-x="569" 
 />
    <glyph glyph-name="Imacron" unicode="&#x12a;" horiz-adv-x="569" 
 />
    <glyph glyph-name="imacron" unicode="&#x12b;" horiz-adv-x="569" 
 />
    <glyph glyph-name="Ibreve" unicode="&#x12c;" horiz-adv-x="569" 
 />
    <glyph glyph-name="ibreve" unicode="&#x12d;" horiz-adv-x="569" 
 />
    <glyph glyph-name="Iogonek" unicode="&#x12e;" horiz-adv-x="569" 
 />
    <glyph glyph-name="iogonek" unicode="&#x12f;" horiz-adv-x="455" 
 />
    <glyph glyph-name="Jcircumflex" unicode="&#x134;" horiz-adv-x="1024" 
 />
    <glyph glyph-name="jcircumflex" unicode="&#x135;" horiz-adv-x="455" 
 />
    <glyph glyph-name="Kcedilla" unicode="&#x136;" horiz-adv-x="1366" 
 />
    <glyph glyph-name="kcedilla" unicode="&#x137;" horiz-adv-x="1024" 
 />
    <glyph glyph-name="kgreenlandic" unicode="&#x138;" horiz-adv-x="1024" 
 />
    <glyph glyph-name="Lcedilla" unicode="&#x13b;" 
 />
    <glyph glyph-name="lcedilla" unicode="&#x13c;" horiz-adv-x="455" 
 />
    <glyph glyph-name="Ncedilla" unicode="&#x145;" horiz-adv-x="1479" 
 />
    <glyph glyph-name="ncedilla" unicode="&#x146;" 
 />
    <glyph glyph-name="Eng" unicode="&#x14a;" horiz-adv-x="1481" 
 />
    <glyph glyph-name="eng" unicode="&#x14b;" 
 />
    <glyph glyph-name="Omacron" unicode="&#x14c;" horiz-adv-x="1593" 
 />
    <glyph glyph-name="omacron" unicode="&#x14d;" 
 />
    <glyph glyph-name="Obreve" unicode="&#x14e;" horiz-adv-x="1593" 
 />
    <glyph glyph-name="obreve" unicode="&#x14f;" 
 />
    <glyph glyph-name="Rcedilla" unicode="&#x156;" horiz-adv-x="1479" 
 />
    <glyph glyph-name="rcedilla" unicode="&#x157;" horiz-adv-x="682" 
 />
    <glyph glyph-name="Scircumflex" unicode="&#x15c;" horiz-adv-x="1366" 
 />
    <glyph glyph-name="scircumflex" unicode="&#x15d;" horiz-adv-x="1024" 
 />
    <glyph glyph-name="Tbar" unicode="&#x166;" horiz-adv-x="1251" 
 />
    <glyph glyph-name="tbar" unicode="&#x167;" horiz-adv-x="569" 
 />
    <glyph glyph-name="Utilde" unicode="&#x168;" horiz-adv-x="1479" 
 />
    <glyph glyph-name="utilde" unicode="&#x169;" 
 />
    <glyph glyph-name="Umacron" unicode="&#x16a;" horiz-adv-x="1479" 
 />
    <glyph glyph-name="umacron" unicode="&#x16b;" 
 />
    <glyph glyph-name="Ubreve" unicode="&#x16c;" horiz-adv-x="1479" 
 />
    <glyph glyph-name="ubreve" unicode="&#x16d;" 
 />
    <glyph glyph-name="Uogonek" unicode="&#x172;" horiz-adv-x="1479" 
 />
    <glyph glyph-name="uogonek" unicode="&#x173;" 
 />
    <glyph glyph-name="Wcircumflex" unicode="&#x174;" horiz-adv-x="1933" 
 />
    <glyph glyph-name="wcircumflex" unicode="&#x175;" horiz-adv-x="1479" 
 />
    <glyph glyph-name="Ycircumflex" unicode="&#x176;" horiz-adv-x="1366" 
 />
    <glyph glyph-name="ycircumflex" unicode="&#x177;" horiz-adv-x="1024" 
 />
    <glyph glyph-name="longs" unicode="&#x17f;" horiz-adv-x="455" 
 />
    <glyph glyph-name="Aringacute" unicode="&#x1fa;" horiz-adv-x="1366" 
 />
    <glyph glyph-name="aringacute" unicode="&#x1fb;" 
 />
    <glyph glyph-name="AEacute" unicode="&#x1fc;" horiz-adv-x="2048" 
 />
    <glyph glyph-name="aeacute" unicode="&#x1fd;" horiz-adv-x="1821" 
 />
    <glyph glyph-name="Oslashacute" unicode="&#x1fe;" horiz-adv-x="1593" 
 />
    <glyph glyph-name="oslashacute" unicode="&#x1ff;" horiz-adv-x="1251" 
 />
    <glyph glyph-name="anoteleia" unicode="&#x387;" horiz-adv-x="569" 
 />
    <glyph glyph-name="Wgrave" unicode="&#x1e80;" horiz-adv-x="1933" 
 />
    <glyph glyph-name="wgrave" unicode="&#x1e81;" horiz-adv-x="1479" 
 />
    <glyph glyph-name="Wacute" unicode="&#x1e82;" horiz-adv-x="1933" 
 />
    <glyph glyph-name="wacute" unicode="&#x1e83;" horiz-adv-x="1479" 
 />
    <glyph glyph-name="Wdieresis" unicode="&#x1e84;" horiz-adv-x="1933" 
 />
    <glyph glyph-name="wdieresis" unicode="&#x1e85;" horiz-adv-x="1479" 
 />
    <glyph glyph-name="Ygrave" unicode="&#x1ef2;" horiz-adv-x="1366" 
 />
    <glyph glyph-name="ygrave" unicode="&#x1ef3;" horiz-adv-x="1024" 
 />
    <glyph glyph-name="quotereversed" unicode="&#x201b;" horiz-adv-x="455" 
 />
    <glyph glyph-name="radicalex" unicode="&#x203e;" horiz-adv-x="682" 
 />
    <glyph glyph-name="afii08941" unicode="&#x20a4;" 
 />
    <glyph glyph-name="estimated" unicode="&#x212e;" horiz-adv-x="1229" 
 />
    <glyph glyph-name="oneeighth" unicode="&#x215b;" horiz-adv-x="1708" 
 />
    <glyph glyph-name="threeeighths" unicode="&#x215c;" horiz-adv-x="1708" 
 />
    <glyph glyph-name="fiveeighths" unicode="&#x215d;" horiz-adv-x="1708" 
 />
    <glyph glyph-name="seveneighths" unicode="&#x215e;" horiz-adv-x="1708" 
 />
    <glyph glyph-name="commaaccent" unicode="&#xf004;" horiz-adv-x="682" 
 />
    <glyph glyph-name="undercommaaccent" unicode="&#xf005;" horiz-adv-x="682" 
 />
    <glyph glyph-name="tonos" unicode="&#x384;" horiz-adv-x="682" 
 />
    <glyph glyph-name="dieresistonos" unicode="&#x385;" horiz-adv-x="682" 
 />
    <glyph glyph-name="Alphatonos" unicode="&#x386;" horiz-adv-x="1367" 
 />
    <glyph glyph-name="Epsilontonos" unicode="&#x388;" horiz-adv-x="1606" 
 />
    <glyph glyph-name="Etatonos" unicode="&#x389;" horiz-adv-x="1716" 
 />
    <glyph glyph-name="Iotatonos" unicode="&#x38a;" horiz-adv-x="786" 
 />
    <glyph glyph-name="Omicrontonos" unicode="&#x38c;" horiz-adv-x="1586" 
 />
    <glyph glyph-name="Upsilontonos" unicode="&#x38e;" horiz-adv-x="1752" 
 />
    <glyph glyph-name="Omegatonos" unicode="&#x38f;" horiz-adv-x="1541" 
 />
    <glyph glyph-name="iotadieresistonos" unicode="&#x390;" horiz-adv-x="455" 
 />
    <glyph glyph-name="Alpha" unicode="&#x391;" horiz-adv-x="1366" 
 />
    <glyph glyph-name="Beta" unicode="&#x392;" horiz-adv-x="1366" 
 />
    <glyph glyph-name="Delta" unicode="&#x394;" horiz-adv-x="1368" 
 />
    <glyph glyph-name="Epsilon" unicode="&#x395;" horiz-adv-x="1366" 
 />
    <glyph glyph-name="Zeta" unicode="&#x396;" horiz-adv-x="1251" 
 />
    <glyph glyph-name="Eta" unicode="&#x397;" horiz-adv-x="1479" 
 />
    <glyph glyph-name="Iota" unicode="&#x399;" horiz-adv-x="569" 
 />
    <glyph glyph-name="Kappa" unicode="&#x39a;" horiz-adv-x="1366" 
 />
    <glyph glyph-name="Lambda" unicode="&#x39b;" horiz-adv-x="1368" 
 />
    <glyph glyph-name="Mu" unicode="&#x39c;" horiz-adv-x="1706" 
 />
    <glyph glyph-name="Nu" unicode="&#x39d;" horiz-adv-x="1479" 
 />
    <glyph glyph-name="Xi" unicode="&#x39e;" horiz-adv-x="1331" 
 />
    <glyph glyph-name="Omicron" unicode="&#x39f;" horiz-adv-x="1593" 
 />
    <glyph glyph-name="Pi" unicode="&#x3a0;" horiz-adv-x="1479" 
 />
    <glyph glyph-name="Rho" unicode="&#x3a1;" horiz-adv-x="1366" 
 />
    <glyph glyph-name="Sigma" unicode="&#x3a3;" horiz-adv-x="1266" 
 />
    <glyph glyph-name="Tau" unicode="&#x3a4;" horiz-adv-x="1251" 
 />
    <glyph glyph-name="Upsilon" unicode="&#x3a5;" horiz-adv-x="1366" 
 />
    <glyph glyph-name="Chi" unicode="&#x3a7;" horiz-adv-x="1366" 
 />
    <glyph glyph-name="Psi" unicode="&#x3a8;" horiz-adv-x="1711" 
 />
    <glyph glyph-name="Omega" unicode="&#x3a9;" horiz-adv-x="1531" 
 />
    <glyph glyph-name="Iotadieresis" unicode="&#x3aa;" horiz-adv-x="569" 
 />
    <glyph glyph-name="Upsilondieresis" unicode="&#x3ab;" horiz-adv-x="1366" 
 />
    <glyph glyph-name="alphatonos" unicode="&#x3ac;" horiz-adv-x="1184" 
 />
    <glyph glyph-name="epsilontonos" unicode="&#x3ad;" horiz-adv-x="913" 
 />
    <glyph glyph-name="etatonos" unicode="&#x3ae;" 
 />
    <glyph glyph-name="iotatonos" unicode="&#x3af;" horiz-adv-x="455" 
 />
    <glyph glyph-name="upsilondieresistonos" unicode="&#x3b0;" horiz-adv-x="1120" 
 />
    <glyph glyph-name="beta" unicode="&#x3b2;" horiz-adv-x="1178" 
 />
    <glyph glyph-name="gamma" unicode="&#x3b3;" horiz-adv-x="1024" 
 />
    <glyph glyph-name="zeta" unicode="&#x3b6;" horiz-adv-x="903" 
 />
    <glyph glyph-name="eta" unicode="&#x3b7;" 
 />
    <glyph glyph-name="theta" unicode="&#x3b8;" 
 />
    <glyph glyph-name="iota" unicode="&#x3b9;" horiz-adv-x="455" 
 />
    <glyph glyph-name="kappa" unicode="&#x3ba;" horiz-adv-x="1024" 
 />
    <glyph glyph-name="lambda" unicode="&#x3bb;" horiz-adv-x="1024" 
 />
    <glyph glyph-name="mu" unicode="&#x3bc;" horiz-adv-x="1180" 
 />
    <glyph glyph-name="nu" unicode="&#x3bd;" horiz-adv-x="1024" 
 />
    <glyph glyph-name="xi" unicode="&#x3be;" horiz-adv-x="917" 
 />
    <glyph glyph-name="omicron" unicode="&#x3bf;" 
 />
    <glyph glyph-name="rho" unicode="&#x3c1;" horiz-adv-x="1165" 
 />
    <glyph glyph-name="sigma1" unicode="&#x3c2;" horiz-adv-x="987" 
 />
    <glyph glyph-name="upsilon" unicode="&#x3c5;" horiz-adv-x="1120" 
 />
    <glyph glyph-name="chi" unicode="&#x3c7;" horiz-adv-x="1075" 
 />
    <glyph glyph-name="psi" unicode="&#x3c8;" horiz-adv-x="1460" 
 />
    <glyph glyph-name="omega" unicode="&#x3c9;" horiz-adv-x="1599" 
 />
    <glyph glyph-name="iotadieresis" unicode="&#x3ca;" horiz-adv-x="455" 
 />
    <glyph glyph-name="upsilondieresis" unicode="&#x3cb;" horiz-adv-x="1120" 
 />
    <glyph glyph-name="omicrontonos" unicode="&#x3cc;" 
 />
    <glyph glyph-name="upsilontonos" unicode="&#x3cd;" horiz-adv-x="1120" 
 />
    <glyph glyph-name="omegatonos" unicode="&#x3ce;" horiz-adv-x="1599" 
 />
    <glyph glyph-name="afii10023" unicode="&#x401;" horiz-adv-x="1367" 
 />
    <glyph glyph-name="afii10051" unicode="&#x402;" horiz-adv-x="1771" 
 />
    <glyph glyph-name="afii10052" unicode="&#x403;" horiz-adv-x="1109" 
 />
    <glyph glyph-name="afii10053" unicode="&#x404;" horiz-adv-x="1472" 
 />
    <glyph glyph-name="afii10054" unicode="&#x405;" horiz-adv-x="1366" 
 />
    <glyph glyph-name="afii10055" unicode="&#x406;" horiz-adv-x="569" 
 />
    <glyph glyph-name="afii10056" unicode="&#x407;" horiz-adv-x="569" 
 />
    <glyph glyph-name="afii10057" unicode="&#x408;" horiz-adv-x="1024" 
 />
    <glyph glyph-name="afii10058" unicode="&#x409;" horiz-adv-x="2165" 
 />
    <glyph glyph-name="afii10059" unicode="&#x40a;" horiz-adv-x="2069" 
 />
    <glyph glyph-name="afii10060" unicode="&#x40b;" horiz-adv-x="1749" 
 />
    <glyph glyph-name="afii10061" unicode="&#x40c;" horiz-adv-x="1193" 
 />
    <glyph glyph-name="afii10062" unicode="&#x40e;" horiz-adv-x="1301" 
 />
    <glyph glyph-name="afii10145" unicode="&#x40f;" horiz-adv-x="1472" 
 />
    <glyph glyph-name="afii10017" unicode="&#x410;" horiz-adv-x="1366" 
 />
    <glyph glyph-name="afii10018" unicode="&#x411;" horiz-adv-x="1344" 
 />
    <glyph glyph-name="afii10019" unicode="&#x412;" horiz-adv-x="1366" 
 />
    <glyph glyph-name="afii10020" unicode="&#x413;" horiz-adv-x="1109" 
 />
    <glyph glyph-name="afii10021" unicode="&#x414;" horiz-adv-x="1387" 
 />
    <glyph glyph-name="afii10022" unicode="&#x415;" horiz-adv-x="1366" 
 />
    <glyph glyph-name="afii10024" unicode="&#x416;" horiz-adv-x="1891" 
 />
    <glyph glyph-name="afii10025" unicode="&#x417;" horiz-adv-x="1237" 
 />
    <glyph glyph-name="afii10026" unicode="&#x418;" horiz-adv-x="1472" 
 />
    <glyph glyph-name="afii10027" unicode="&#x419;" horiz-adv-x="1472" 
 />
    <glyph glyph-name="afii10028" unicode="&#x41a;" horiz-adv-x="1193" 
 />
    <glyph glyph-name="afii10029" unicode="&#x41b;" horiz-adv-x="1344" 
 />
    <glyph glyph-name="afii10030" unicode="&#x41c;" horiz-adv-x="1706" 
 />
    <glyph glyph-name="afii10031" unicode="&#x41d;" horiz-adv-x="1479" 
 />
    <glyph glyph-name="afii10032" unicode="&#x41e;" horiz-adv-x="1593" 
 />
    <glyph glyph-name="afii10033" unicode="&#x41f;" horiz-adv-x="1472" 
 />
    <glyph glyph-name="afii10034" unicode="&#x420;" horiz-adv-x="1366" 
 />
    <glyph glyph-name="afii10035" unicode="&#x421;" horiz-adv-x="1479" 
 />
    <glyph glyph-name="afii10036" unicode="&#x422;" horiz-adv-x="1251" 
 />
    <glyph glyph-name="afii10037" unicode="&#x423;" horiz-adv-x="1301" 
 />
    <glyph glyph-name="afii10038" unicode="&#x424;" horiz-adv-x="1557" 
 />
    <glyph glyph-name="afii10039" unicode="&#x425;" horiz-adv-x="1366" 
 />
    <glyph glyph-name="afii10040" unicode="&#x426;" horiz-adv-x="1515" 
 />
    <glyph glyph-name="afii10041" unicode="&#x427;" horiz-adv-x="1365" 
 />
    <glyph glyph-name="afii10042" unicode="&#x428;" horiz-adv-x="1877" 
 />
    <glyph glyph-name="afii10043" unicode="&#x429;" horiz-adv-x="1920" 
 />
    <glyph glyph-name="afii10044" unicode="&#x42a;" horiz-adv-x="1621" 
 />
    <glyph glyph-name="afii10045" unicode="&#x42b;" horiz-adv-x="1813" 
 />
    <glyph glyph-name="afii10046" unicode="&#x42c;" horiz-adv-x="1344" 
 />
    <glyph glyph-name="afii10047" unicode="&#x42d;" horiz-adv-x="1472" 
 />
    <glyph glyph-name="afii10048" unicode="&#x42e;" horiz-adv-x="2069" 
 />
    <glyph glyph-name="afii10049" unicode="&#x42f;" horiz-adv-x="1479" 
 />
    <glyph glyph-name="afii10065" unicode="&#x430;" 
 />
    <glyph glyph-name="afii10066" unicode="&#x431;" horiz-adv-x="1173" 
 />
    <glyph glyph-name="afii10067" unicode="&#x432;" horiz-adv-x="1088" 
 />
    <glyph glyph-name="afii10068" unicode="&#x433;" horiz-adv-x="747" 
 />
    <glyph glyph-name="afii10069" unicode="&#x434;" horiz-adv-x="1195" 
 />
    <glyph glyph-name="afii10070" unicode="&#x435;" 
 />
    <glyph glyph-name="afii10072" unicode="&#x436;" horiz-adv-x="1370" 
 />
    <glyph glyph-name="afii10073" unicode="&#x437;" horiz-adv-x="939" 
 />
    <glyph glyph-name="afii10074" unicode="&#x438;" horiz-adv-x="1144" 
 />
    <glyph glyph-name="afii10075" unicode="&#x439;" horiz-adv-x="1144" 
 />
    <glyph glyph-name="afii10076" unicode="&#x43a;" horiz-adv-x="896" 
 />
    <glyph glyph-name="afii10077" unicode="&#x43b;" horiz-adv-x="1195" 
 />
    <glyph glyph-name="afii10078" unicode="&#x43c;" horiz-adv-x="1408" 
 />
    <glyph glyph-name="afii10079" unicode="&#x43d;" horiz-adv-x="1131" 
 />
    <glyph glyph-name="afii10080" unicode="&#x43e;" 
 />
    <glyph glyph-name="afii10081" unicode="&#x43f;" horiz-adv-x="1109" 
 />
    <glyph glyph-name="afii10082" unicode="&#x440;" 
 />
    <glyph glyph-name="afii10083" unicode="&#x441;" horiz-adv-x="1024" 
 />
    <glyph glyph-name="afii10084" unicode="&#x442;" horiz-adv-x="938" 
 />
    <glyph glyph-name="afii10085" unicode="&#x443;" horiz-adv-x="1024" 
 />
    <glyph glyph-name="afii10086" unicode="&#x444;" horiz-adv-x="1685" 
 />
    <glyph glyph-name="afii10087" unicode="&#x445;" horiz-adv-x="1024" 
 />
    <glyph glyph-name="afii10088" unicode="&#x446;" horiz-adv-x="1173" 
 />
    <glyph glyph-name="afii10089" unicode="&#x447;" horiz-adv-x="1067" 
 />
    <glyph glyph-name="afii10090" unicode="&#x448;" horiz-adv-x="1643" 
 />
    <glyph glyph-name="afii10091" unicode="&#x449;" horiz-adv-x="1685" 
 />
    <glyph glyph-name="afii10092" unicode="&#x44a;" horiz-adv-x="1280" 
 />
    <glyph glyph-name="afii10093" unicode="&#x44b;" horiz-adv-x="1472" 
 />
    <glyph glyph-name="afii10094" unicode="&#x44c;" horiz-adv-x="1067" 
 />
    <glyph glyph-name="afii10095" unicode="&#x44d;" horiz-adv-x="1045" 
 />
    <glyph glyph-name="afii10096" unicode="&#x44e;" horiz-adv-x="1536" 
 />
    <glyph glyph-name="afii10097" unicode="&#x44f;" horiz-adv-x="1109" 
 />
    <glyph glyph-name="afii10071" unicode="&#x451;" 
 />
    <glyph glyph-name="afii10099" unicode="&#x452;" 
 />
    <glyph glyph-name="afii10100" unicode="&#x453;" horiz-adv-x="747" 
 />
    <glyph glyph-name="afii10101" unicode="&#x454;" horiz-adv-x="1045" 
 />
    <glyph glyph-name="afii10102" unicode="&#x455;" horiz-adv-x="1024" 
 />
    <glyph glyph-name="afii10103" unicode="&#x456;" horiz-adv-x="455" 
 />
    <glyph glyph-name="afii10104" unicode="&#x457;" horiz-adv-x="569" 
 />
    <glyph glyph-name="afii10105" unicode="&#x458;" horiz-adv-x="455" 
 />
    <glyph glyph-name="afii10106" unicode="&#x459;" horiz-adv-x="1856" 
 />
    <glyph glyph-name="afii10107" unicode="&#x45a;" horiz-adv-x="1664" 
 />
    <glyph glyph-name="afii10108" unicode="&#x45b;" 
 />
    <glyph glyph-name="afii10109" unicode="&#x45c;" horiz-adv-x="896" 
 />
    <glyph glyph-name="afii10110" unicode="&#x45e;" horiz-adv-x="1024" 
 />
    <glyph glyph-name="afii10193" unicode="&#x45f;" horiz-adv-x="1131" 
 />
    <glyph glyph-name="afii10050" unicode="&#x490;" horiz-adv-x="1001" 
 />
    <glyph glyph-name="afii10098" unicode="&#x491;" horiz-adv-x="842" 
 />
    <glyph glyph-name="afii00208" unicode="&#x2015;" horiz-adv-x="2048" 
 />
    <glyph glyph-name="afii61352" unicode="&#x2116;" horiz-adv-x="2197" 
 />
    <glyph glyph-name="pi" unicode="&#x3c0;" horiz-adv-x="1413" 
 />
  </font>
</defs>
</svg>
